<?xml version="1.0" encoding="utf-8" standalone="no"?>
<!DOCTYPE svg PUBLIC "-//W3C//DTD SVG 1.1//EN"
  "http://www.w3.org/Graphics/SVG/1.1/DTD/svg11.dtd">
<svg xmlns:xlink="http://www.w3.org/1999/xlink" width="460.8pt" height="345.6pt" viewBox="0 0 460.8 345.6" xmlns="http://www.w3.org/2000/svg" version="1.1">
 <metadata>
  <rdf:RDF xmlns:dc="http://purl.org/dc/elements/1.1/" xmlns:cc="http://creativecommons.org/ns#" xmlns:rdf="http://www.w3.org/1999/02/22-rdf-syntax-ns#">
   <cc:Work>
    <dc:type rdf:resource="http://purl.org/dc/dcmitype/StillImage"/>
    <dc:date>2023-02-19T22:15:12.963293</dc:date>
    <dc:format>image/svg+xml</dc:format>
    <dc:creator>
     <cc:Agent>
      <dc:title>Matplotlib v3.7.0, https://matplotlib.org/</dc:title>
     </cc:Agent>
    </dc:creator>
   </cc:Work>
  </rdf:RDF>
 </metadata>
 <defs>
  <style type="text/css">*{stroke-linejoin: round; stroke-linecap: butt}</style>
 </defs>
 <g id="figure_1">
  <g id="patch_1">
   <path d="M 0 345.6 
L 460.8 345.6 
L 460.8 0 
L 0 0 
z
" style="fill: #ffffff"/>
  </g>
  <g id="axes_1">
   <g id="patch_2">
    <path d="M 57.6 307.584 
L 414.72 307.584 
L 414.72 41.472 
L 57.6 41.472 
z
" style="fill: #ffffff"/>
   </g>
   <g id="matplotlib.axis_1">
    <g id="xtick_1">
     <g id="line2d_1">
      <defs>
       <path id="mbe4cb28e26" d="M 0 0 
L 0 3.5 
" style="stroke: #000000; stroke-width: 0.8"/>
      </defs>
      <g>
       <use xlink:href="#mbe4cb28e26" x="73.832727" y="307.584" style="stroke: #000000; stroke-width: 0.8"/>
      </g>
     </g>
     <g id="text_1">
      <!-- 0 -->
      <g transform="translate(71.332727 321.413687) scale(0.1 -0.1)">
       <defs>
        <path id="STIXGeneral-Regular-30" d="M 3046 2112 
Q 3046 1683 2963 1302 
Q 2880 922 2717 602 
Q 2554 282 2266 96 
Q 1978 -90 1600 -90 
Q 1210 -90 915 108 
Q 621 307 461 640 
Q 301 973 227 1350 
Q 154 1728 154 2150 
Q 154 2746 301 3222 
Q 448 3699 790 4012 
Q 1133 4326 1626 4326 
Q 2253 4326 2649 3712 
Q 3046 3098 3046 2112 
z
M 2432 2080 
Q 2432 3091 2217 3625 
Q 2003 4160 1587 4160 
Q 1190 4160 979 3622 
Q 768 3085 768 2106 
Q 768 1120 979 598 
Q 1190 77 1600 77 
Q 2003 77 2217 598 
Q 2432 1120 2432 2080 
z
" transform="scale(0.015625)"/>
       </defs>
       <use xlink:href="#STIXGeneral-Regular-30"/>
      </g>
     </g>
    </g>
    <g id="xtick_2">
     <g id="line2d_2">
      <g>
       <use xlink:href="#mbe4cb28e26" x="138.893758" y="307.584" style="stroke: #000000; stroke-width: 0.8"/>
      </g>
     </g>
     <g id="text_2">
      <!-- 100 -->
      <g transform="translate(131.393758 321.413687) scale(0.1 -0.1)">
       <defs>
        <path id="STIXGeneral-Regular-31" d="M 2522 0 
L 755 0 
L 755 96 
Q 1107 115 1235 227 
Q 1363 339 1363 608 
L 1363 3482 
Q 1363 3795 1171 3795 
Q 1082 3795 883 3718 
L 710 3654 
L 710 3744 
L 1856 4326 
L 1914 4307 
L 1914 486 
Q 1914 275 2042 185 
Q 2170 96 2522 96 
L 2522 0 
z
" transform="scale(0.015625)"/>
       </defs>
       <use xlink:href="#STIXGeneral-Regular-31"/>
       <use xlink:href="#STIXGeneral-Regular-30" x="49.999985"/>
       <use xlink:href="#STIXGeneral-Regular-30" x="99.999969"/>
      </g>
     </g>
    </g>
    <g id="xtick_3">
     <g id="line2d_3">
      <g>
       <use xlink:href="#mbe4cb28e26" x="203.95479" y="307.584" style="stroke: #000000; stroke-width: 0.8"/>
      </g>
     </g>
     <g id="text_3">
      <!-- 200 -->
      <g transform="translate(196.45479 321.413687) scale(0.1 -0.1)">
       <defs>
        <path id="STIXGeneral-Regular-32" d="M 3034 877 
L 2688 0 
L 186 0 
L 186 77 
L 1325 1286 
Q 1773 1754 1965 2144 
Q 2157 2534 2157 2950 
Q 2157 3379 1920 3616 
Q 1683 3853 1267 3853 
Q 922 3853 720 3673 
Q 518 3494 326 3021 
L 192 3053 
Q 301 3648 630 3987 
Q 960 4326 1523 4326 
Q 2054 4326 2380 4006 
Q 2707 3686 2707 3200 
Q 2707 2477 1888 1613 
L 832 486 
L 2330 486 
Q 2541 486 2665 569 
Q 2790 653 2944 915 
L 3034 877 
z
" transform="scale(0.015625)"/>
       </defs>
       <use xlink:href="#STIXGeneral-Regular-32"/>
       <use xlink:href="#STIXGeneral-Regular-30" x="49.999985"/>
       <use xlink:href="#STIXGeneral-Regular-30" x="99.999969"/>
      </g>
     </g>
    </g>
    <g id="xtick_4">
     <g id="line2d_4">
      <g>
       <use xlink:href="#mbe4cb28e26" x="269.015821" y="307.584" style="stroke: #000000; stroke-width: 0.8"/>
      </g>
     </g>
     <g id="text_4">
      <!-- 300 -->
      <g transform="translate(261.515821 321.413687) scale(0.1 -0.1)">
       <defs>
        <path id="STIXGeneral-Regular-33" d="M 390 3264 
L 288 3290 
Q 435 3770 748 4048 
Q 1062 4326 1542 4326 
Q 1990 4326 2265 4083 
Q 2541 3840 2541 3450 
Q 2541 2925 1946 2566 
Q 2298 2413 2477 2227 
Q 2758 1914 2758 1402 
Q 2758 890 2464 506 
Q 2246 211 1840 60 
Q 1434 -90 979 -90 
Q 262 -90 262 275 
Q 262 378 339 442 
Q 416 506 525 506 
Q 685 506 915 339 
Q 1197 141 1466 141 
Q 1818 141 2058 425 
Q 2298 710 2298 1120 
Q 2298 1856 1632 2048 
Q 1434 2112 979 2112 
L 979 2202 
Q 1338 2323 1517 2432 
Q 2035 2726 2035 3290 
Q 2035 3610 1852 3776 
Q 1670 3942 1344 3942 
Q 768 3942 390 3264 
z
" transform="scale(0.015625)"/>
       </defs>
       <use xlink:href="#STIXGeneral-Regular-33"/>
       <use xlink:href="#STIXGeneral-Regular-30" x="49.999985"/>
       <use xlink:href="#STIXGeneral-Regular-30" x="99.999969"/>
      </g>
     </g>
    </g>
    <g id="xtick_5">
     <g id="line2d_5">
      <g>
       <use xlink:href="#mbe4cb28e26" x="334.076852" y="307.584" style="stroke: #000000; stroke-width: 0.8"/>
      </g>
     </g>
     <g id="text_5">
      <!-- 400 -->
      <g transform="translate(326.576852 321.413687) scale(0.1 -0.1)">
       <defs>
        <path id="STIXGeneral-Regular-34" d="M 3027 1069 
L 2368 1069 
L 2368 0 
L 1869 0 
L 1869 1069 
L 77 1069 
L 77 1478 
L 2086 4326 
L 2368 4326 
L 2368 1478 
L 3027 1478 
L 3027 1069 
z
M 1869 1478 
L 1869 3674 
L 333 1478 
L 1869 1478 
z
" transform="scale(0.015625)"/>
       </defs>
       <use xlink:href="#STIXGeneral-Regular-34"/>
       <use xlink:href="#STIXGeneral-Regular-30" x="49.999985"/>
       <use xlink:href="#STIXGeneral-Regular-30" x="99.999969"/>
      </g>
     </g>
    </g>
    <g id="xtick_6">
     <g id="line2d_6">
      <g>
       <use xlink:href="#mbe4cb28e26" x="399.137883" y="307.584" style="stroke: #000000; stroke-width: 0.8"/>
      </g>
     </g>
     <g id="text_6">
      <!-- 500 -->
      <g transform="translate(391.637883 321.413687) scale(0.1 -0.1)">
       <defs>
        <path id="STIXGeneral-Regular-35" d="M 2803 4358 
L 2573 3814 
Q 2534 3731 2400 3731 
L 1158 3731 
L 902 3187 
Q 1606 3053 1920 2896 
Q 2234 2739 2502 2368 
Q 2726 2061 2726 1555 
Q 2726 1094 2576 780 
Q 2426 467 2099 224 
Q 1664 -90 1011 -90 
Q 646 -90 422 19 
Q 198 128 198 307 
Q 198 550 486 550 
Q 717 550 960 352 
Q 1210 147 1414 147 
Q 1747 147 2012 480 
Q 2278 813 2278 1229 
Q 2278 1843 1850 2189 
Q 1293 2637 486 2637 
Q 410 2637 410 2688 
L 416 2720 
L 1114 4237 
L 2438 4237 
Q 2547 4237 2608 4269 
Q 2669 4301 2746 4403 
L 2803 4358 
z
" transform="scale(0.015625)"/>
       </defs>
       <use xlink:href="#STIXGeneral-Regular-35"/>
       <use xlink:href="#STIXGeneral-Regular-30" x="49.999985"/>
       <use xlink:href="#STIXGeneral-Regular-30" x="99.999969"/>
      </g>
     </g>
    </g>
    <g id="text_7">
     <!-- Iterations -->
     <g transform="translate(217.274844 334.413687) scale(0.1 -0.1)">
      <defs>
       <path id="STIXGeneral-Regular-49" d="M 2016 0 
L 115 0 
L 115 122 
Q 518 134 627 240 
Q 736 346 736 717 
L 736 3526 
Q 736 3898 633 3994 
Q 531 4090 115 4115 
L 115 4237 
L 2016 4237 
L 2016 4115 
Q 1613 4096 1501 3993 
Q 1389 3891 1389 3526 
L 1389 717 
Q 1389 358 1504 246 
Q 1619 134 2016 122 
L 2016 0 
z
" transform="scale(0.015625)"/>
       <path id="STIXGeneral-Regular-74" d="M 1702 493 
L 1786 422 
Q 1478 -64 1011 -64 
Q 448 -64 448 749 
L 448 2675 
L 109 2675 
Q 83 2694 83 2720 
Q 83 2771 192 2842 
Q 435 2982 813 3526 
Q 826 3546 874 3606 
Q 922 3667 941 3706 
Q 986 3706 986 3622 
L 986 2880 
L 1632 2880 
L 1632 2675 
L 986 2675 
L 986 845 
Q 986 538 1062 403 
Q 1139 269 1318 269 
Q 1510 269 1702 493 
z
" transform="scale(0.015625)"/>
       <path id="STIXGeneral-Regular-65" d="M 2611 1050 
L 2714 1005 
Q 2330 -64 1376 -64 
Q 813 -64 486 329 
Q 160 723 160 1389 
Q 160 2074 525 2509 
Q 890 2944 1485 2944 
Q 2061 2944 2374 2502 
Q 2560 2246 2592 1773 
L 621 1773 
Q 646 1370 700 1158 
Q 755 947 915 730 
Q 1184 378 1626 378 
Q 1939 378 2153 531 
Q 2368 685 2611 1050 
z
M 634 1978 
L 1939 1978 
Q 1882 2381 1750 2547 
Q 1619 2714 1312 2714 
Q 1043 2714 864 2525 
Q 685 2336 634 1978 
z
" transform="scale(0.015625)"/>
       <path id="STIXGeneral-Regular-72" d="M 1024 2931 
L 1024 2342 
Q 1267 2688 1430 2816 
Q 1594 2944 1792 2944 
Q 1958 2944 2051 2854 
Q 2144 2765 2144 2605 
Q 2144 2470 2077 2393 
Q 2010 2317 1894 2317 
Q 1773 2317 1638 2445 
Q 1536 2541 1472 2541 
Q 1338 2541 1181 2355 
Q 1024 2170 1024 2016 
L 1024 576 
Q 1024 301 1133 205 
Q 1242 109 1568 96 
L 1568 0 
L 32 0 
L 32 96 
Q 339 154 412 224 
Q 486 294 486 538 
L 486 2138 
Q 486 2349 438 2435 
Q 390 2522 269 2522 
Q 166 2522 45 2496 
L 45 2598 
Q 448 2726 992 2944 
L 1024 2931 
z
" transform="scale(0.015625)"/>
       <path id="STIXGeneral-Regular-61" d="M 2829 422 
L 2829 243 
Q 2586 -64 2253 -64 
Q 1888 -64 1843 403 
L 1837 403 
Q 1427 -64 909 -64 
Q 608 -64 422 112 
Q 237 288 237 602 
Q 237 1050 685 1350 
Q 992 1555 1837 1869 
L 1837 2214 
Q 1837 2502 1699 2646 
Q 1562 2790 1338 2790 
Q 1146 2790 1018 2697 
Q 890 2605 890 2477 
Q 890 2419 909 2348 
Q 928 2278 928 2208 
Q 928 2112 841 2029 
Q 755 1946 634 1946 
Q 525 1946 441 2029 
Q 358 2112 358 2240 
Q 358 2547 685 2752 
Q 986 2944 1421 2944 
Q 1939 2944 2176 2656 
Q 2291 2522 2323 2384 
Q 2355 2246 2355 1946 
L 2355 723 
Q 2355 301 2554 301 
Q 2682 301 2829 422 
z
M 1837 813 
L 1837 1715 
Q 1248 1510 1018 1293 
Q 800 1094 800 800 
Q 800 557 921 432 
Q 1043 307 1242 307 
Q 1453 307 1613 410 
Q 1747 506 1792 589 
Q 1837 672 1837 813 
z
" transform="scale(0.015625)"/>
       <path id="STIXGeneral-Regular-69" d="M 1152 4045 
Q 1152 3904 1056 3811 
Q 960 3718 819 3718 
Q 685 3718 592 3811 
Q 499 3904 499 4045 
Q 499 4179 595 4275 
Q 691 4371 826 4371 
Q 966 4371 1059 4275 
Q 1152 4179 1152 4045 
z
M 1619 0 
L 102 0 
L 102 96 
Q 435 115 521 211 
Q 608 307 608 666 
L 608 2118 
Q 608 2342 563 2432 
Q 518 2522 397 2522 
Q 243 2522 128 2490 
L 128 2592 
L 1120 2944 
L 1146 2918 
L 1146 672 
Q 1146 314 1226 218 
Q 1306 122 1619 96 
L 1619 0 
z
" transform="scale(0.015625)"/>
       <path id="STIXGeneral-Regular-6f" d="M 3008 1478 
Q 3008 806 2608 371 
Q 2208 -64 1568 -64 
Q 979 -64 582 368 
Q 186 800 186 1459 
Q 186 2125 582 2534 
Q 979 2944 1626 2944 
Q 2221 2944 2614 2537 
Q 3008 2131 3008 1478 
z
M 2432 1306 
Q 2432 2035 2112 2445 
Q 1856 2765 1504 2765 
Q 1171 2765 966 2493 
Q 762 2221 762 1747 
Q 762 928 1101 435 
Q 1318 115 1677 115 
Q 2029 115 2230 432 
Q 2432 749 2432 1306 
z
" transform="scale(0.015625)"/>
       <path id="STIXGeneral-Regular-6e" d="M 3104 0 
L 1773 0 
L 1779 96 
Q 2016 115 2096 233 
Q 2176 352 2176 672 
L 2176 1946 
Q 2176 2592 1709 2592 
Q 1549 2592 1408 2515 
Q 1267 2438 1050 2227 
L 1050 461 
Q 1050 269 1136 192 
Q 1222 115 1466 96 
L 1466 0 
L 115 0 
L 115 96 
Q 358 115 435 214 
Q 512 314 512 602 
L 512 2157 
Q 512 2394 467 2483 
Q 422 2573 288 2573 
Q 160 2573 102 2547 
L 102 2656 
Q 550 2784 979 2944 
L 1030 2925 
L 1030 2426 
L 1037 2426 
Q 1491 2944 1958 2944 
Q 2323 2944 2518 2688 
Q 2714 2432 2714 1958 
L 2714 544 
Q 2714 288 2790 205 
Q 2867 122 3104 96 
L 3104 0 
z
" transform="scale(0.015625)"/>
       <path id="STIXGeneral-Regular-73" d="M 998 1926 
L 1664 1523 
Q 1984 1331 2105 1164 
Q 2227 998 2227 736 
Q 2227 416 1961 176 
Q 1696 -64 1331 -64 
Q 1030 -64 864 -6 
Q 691 51 570 51 
Q 461 51 416 -26 
L 333 -26 
L 333 979 
L 435 979 
Q 538 512 730 294 
Q 922 77 1248 77 
Q 1485 77 1632 211 
Q 1779 346 1779 550 
Q 1779 845 1440 1030 
L 1094 1222 
Q 326 1651 326 2150 
Q 326 2522 566 2730 
Q 806 2938 1210 2938 
Q 1491 2938 1638 2867 
Q 1754 2816 1818 2816 
Q 1862 2816 1920 2880 
L 1990 2880 
L 2022 2010 
L 1926 2010 
Q 1818 2445 1654 2621 
Q 1491 2797 1203 2797 
Q 986 2797 854 2688 
Q 723 2579 723 2362 
Q 723 2253 796 2128 
Q 870 2003 998 1926 
z
" transform="scale(0.015625)"/>
      </defs>
      <use xlink:href="#STIXGeneral-Regular-49"/>
      <use xlink:href="#STIXGeneral-Regular-74" x="33.299988"/>
      <use xlink:href="#STIXGeneral-Regular-65" x="61.099976"/>
      <use xlink:href="#STIXGeneral-Regular-72" x="105.499969"/>
      <use xlink:href="#STIXGeneral-Regular-61" x="138.799957"/>
      <use xlink:href="#STIXGeneral-Regular-74" x="183.199951"/>
      <use xlink:href="#STIXGeneral-Regular-69" x="210.999939"/>
      <use xlink:href="#STIXGeneral-Regular-6f" x="238.799927"/>
      <use xlink:href="#STIXGeneral-Regular-6e" x="288.799911"/>
      <use xlink:href="#STIXGeneral-Regular-73" x="338.799896"/>
     </g>
    </g>
   </g>
   <g id="matplotlib.axis_2">
    <g id="ytick_1">
     <g id="line2d_7">
      <defs>
       <path id="mdd14ff454a" d="M 0 0 
L -3.5 0 
" style="stroke: #000000; stroke-width: 0.8"/>
      </defs>
      <g>
       <use xlink:href="#mdd14ff454a" x="57.6" y="307.584" style="stroke: #000000; stroke-width: 0.8"/>
      </g>
     </g>
     <g id="text_8">
      <!-- 0 -->
      <g transform="translate(45.6 310.998844) scale(0.1 -0.1)">
       <use xlink:href="#STIXGeneral-Regular-30"/>
      </g>
     </g>
    </g>
    <g id="ytick_2">
     <g id="line2d_8">
      <g>
       <use xlink:href="#mdd14ff454a" x="57.6" y="277.000882" style="stroke: #000000; stroke-width: 0.8"/>
      </g>
     </g>
     <g id="text_9">
      <!-- 2 -->
      <g transform="translate(45.6 280.415726) scale(0.1 -0.1)">
       <use xlink:href="#STIXGeneral-Regular-32"/>
      </g>
     </g>
    </g>
    <g id="ytick_3">
     <g id="line2d_9">
      <g>
       <use xlink:href="#mdd14ff454a" x="57.6" y="246.417764" style="stroke: #000000; stroke-width: 0.8"/>
      </g>
     </g>
     <g id="text_10">
      <!-- 4 -->
      <g transform="translate(45.6 249.832607) scale(0.1 -0.1)">
       <use xlink:href="#STIXGeneral-Regular-34"/>
      </g>
     </g>
    </g>
    <g id="ytick_4">
     <g id="line2d_10">
      <g>
       <use xlink:href="#mdd14ff454a" x="57.6" y="215.834645" style="stroke: #000000; stroke-width: 0.8"/>
      </g>
     </g>
     <g id="text_11">
      <!-- 6 -->
      <g transform="translate(45.6 219.249489) scale(0.1 -0.1)">
       <defs>
        <path id="STIXGeneral-Regular-36" d="M 2854 4378 
L 2867 4275 
Q 2112 4154 1606 3664 
Q 1101 3174 973 2451 
Q 1344 2739 1786 2739 
Q 2349 2739 2672 2380 
Q 2995 2022 2995 1402 
Q 2995 774 2669 378 
Q 2291 -90 1651 -90 
Q 870 -90 518 557 
Q 218 1107 218 1786 
Q 218 2835 915 3552 
Q 1312 3962 1731 4131 
Q 2150 4301 2854 4378 
z
M 2419 1203 
Q 2419 2445 1555 2445 
Q 1235 2445 1024 2275 
Q 813 2106 813 1702 
Q 813 954 1046 522 
Q 1280 90 1722 90 
Q 2061 90 2240 394 
Q 2419 698 2419 1203 
z
" transform="scale(0.015625)"/>
       </defs>
       <use xlink:href="#STIXGeneral-Regular-36"/>
      </g>
     </g>
    </g>
    <g id="ytick_5">
     <g id="line2d_11">
      <g>
       <use xlink:href="#mdd14ff454a" x="57.6" y="185.251527" style="stroke: #000000; stroke-width: 0.8"/>
      </g>
     </g>
     <g id="text_12">
      <!-- 8 -->
      <g transform="translate(45.6 188.666371) scale(0.1 -0.1)">
       <defs>
        <path id="STIXGeneral-Regular-38" d="M 2848 992 
Q 2848 499 2505 204 
Q 2163 -90 1587 -90 
Q 1050 -90 704 204 
Q 358 499 358 954 
Q 358 1293 524 1533 
Q 691 1773 1190 2125 
Q 710 2522 553 2765 
Q 397 3008 397 3328 
Q 397 3782 745 4054 
Q 1094 4326 1638 4326 
Q 2106 4326 2410 4060 
Q 2714 3795 2714 3411 
Q 2714 3059 2531 2848 
Q 2349 2637 1856 2374 
Q 2432 1990 2640 1689 
Q 2848 1389 2848 992 
z
M 2272 3411 
Q 2272 3744 2086 3945 
Q 1901 4147 1574 4147 
Q 1248 4147 1059 3977 
Q 870 3808 870 3513 
Q 870 3219 1059 2979 
Q 1248 2739 1670 2490 
Q 1997 2682 2134 2896 
Q 2272 3110 2272 3411 
z
M 1734 1741 
L 1357 1997 
Q 1075 1766 960 1545 
Q 845 1325 845 1011 
Q 845 576 1065 333 
Q 1286 90 1658 90 
Q 1971 90 2166 285 
Q 2362 480 2362 794 
Q 2362 1082 2214 1299 
Q 2067 1517 1734 1741 
z
" transform="scale(0.015625)"/>
       </defs>
       <use xlink:href="#STIXGeneral-Regular-38"/>
      </g>
     </g>
    </g>
    <g id="ytick_6">
     <g id="line2d_12">
      <g>
       <use xlink:href="#mdd14ff454a" x="57.6" y="154.668409" style="stroke: #000000; stroke-width: 0.8"/>
      </g>
     </g>
     <g id="text_13">
      <!-- 10 -->
      <g transform="translate(40.6 158.083253) scale(0.1 -0.1)">
       <use xlink:href="#STIXGeneral-Regular-31"/>
       <use xlink:href="#STIXGeneral-Regular-30" x="49.999985"/>
      </g>
     </g>
    </g>
    <g id="ytick_7">
     <g id="line2d_13">
      <g>
       <use xlink:href="#mdd14ff454a" x="57.6" y="124.085291" style="stroke: #000000; stroke-width: 0.8"/>
      </g>
     </g>
     <g id="text_14">
      <!-- 12 -->
      <g transform="translate(40.6 127.500134) scale(0.1 -0.1)">
       <use xlink:href="#STIXGeneral-Regular-31"/>
       <use xlink:href="#STIXGeneral-Regular-32" x="49.999985"/>
      </g>
     </g>
    </g>
    <g id="ytick_8">
     <g id="line2d_14">
      <g>
       <use xlink:href="#mdd14ff454a" x="57.6" y="93.502172" style="stroke: #000000; stroke-width: 0.8"/>
      </g>
     </g>
     <g id="text_15">
      <!-- 14 -->
      <g transform="translate(40.6 96.917016) scale(0.1 -0.1)">
       <use xlink:href="#STIXGeneral-Regular-31"/>
       <use xlink:href="#STIXGeneral-Regular-34" x="49.999985"/>
      </g>
     </g>
    </g>
    <g id="ytick_9">
     <g id="line2d_15">
      <g>
       <use xlink:href="#mdd14ff454a" x="57.6" y="62.919054" style="stroke: #000000; stroke-width: 0.8"/>
      </g>
     </g>
     <g id="text_16">
      <!-- 16 -->
      <g transform="translate(40.6 66.333898) scale(0.1 -0.1)">
       <use xlink:href="#STIXGeneral-Regular-31"/>
       <use xlink:href="#STIXGeneral-Regular-36" x="49.999985"/>
      </g>
     </g>
    </g>
    <g id="text_17">
     <!-- Distance [Å] -->
     <g transform="translate(34.429688 200.213937) rotate(-90) scale(0.1 -0.1)">
      <defs>
       <path id="STIXGeneral-Regular-44" d="M 102 4237 
L 1830 4237 
Q 3078 4237 3750 3654 
Q 4384 3110 4384 2138 
Q 4384 966 3514 410 
Q 2880 0 1901 0 
L 102 0 
L 102 122 
Q 474 147 570 252 
Q 666 358 666 736 
L 666 3520 
Q 666 3891 570 3990 
Q 474 4090 102 4115 
L 102 4237 
z
M 1318 3731 
L 1318 538 
Q 1318 365 1379 301 
Q 1440 237 1626 237 
Q 2125 237 2432 307 
Q 2739 378 3021 570 
Q 3686 1018 3686 2099 
Q 3686 3027 3078 3558 
Q 2803 3802 2476 3901 
Q 2150 4000 1658 4000 
Q 1472 4000 1395 3942 
Q 1318 3885 1318 3731 
z
" transform="scale(0.015625)"/>
       <path id="STIXGeneral-Regular-63" d="M 2547 998 
L 2637 941 
Q 2362 403 2112 205 
Q 1786 -64 1376 -64 
Q 845 -64 502 336 
Q 160 736 160 1357 
Q 160 2170 698 2618 
Q 1094 2944 1562 2944 
Q 1965 2944 2256 2749 
Q 2547 2554 2547 2285 
Q 2547 2176 2457 2096 
Q 2368 2016 2246 2016 
Q 2022 2016 1939 2310 
L 1901 2451 
Q 1850 2630 1773 2694 
Q 1696 2758 1523 2758 
Q 1133 2758 893 2451 
Q 653 2144 653 1645 
Q 653 1094 928 745 
Q 1203 397 1645 397 
Q 1920 397 2118 528 
Q 2317 659 2547 998 
z
" transform="scale(0.015625)"/>
       <path id="STIXGeneral-Regular-20" transform="scale(0.015625)"/>
       <path id="STIXGeneral-Regular-5b" d="M 1914 -998 
L 563 -998 
L 563 4237 
L 1914 4237 
L 1914 4077 
L 1382 4077 
Q 1216 4077 1133 4006 
Q 1050 3936 1050 3770 
L 1050 -493 
Q 1050 -838 1382 -838 
L 1914 -838 
L 1914 -998 
z
" transform="scale(0.015625)"/>
       <path id="STIXGeneral-Regular-c5" d="M 2752 5961 
Q 2938 5773 2938 5510 
Q 2938 5248 2749 5062 
Q 2560 4877 2291 4877 
Q 2029 4877 1846 5062 
Q 1664 5248 1664 5517 
Q 1664 5779 1853 5964 
Q 2042 6150 2310 6150 
Q 2566 6150 2752 5961 
z
M 2720 5517 
Q 2720 5690 2595 5811 
Q 2470 5933 2291 5933 
Q 2125 5933 2003 5808 
Q 1882 5683 1882 5517 
Q 1882 5338 2003 5216 
Q 2125 5094 2291 5094 
Q 2470 5094 2595 5216 
Q 2720 5338 2720 5517 
z
M 4525 0 
L 2893 0 
L 2893 122 
Q 3149 122 3245 179 
Q 3334 224 3334 333 
Q 3334 499 3213 781 
L 2950 1382 
L 1274 1382 
L 979 653 
Q 922 506 922 384 
Q 922 237 1027 179 
Q 1133 122 1370 122 
L 1370 0 
L 96 0 
L 96 122 
Q 365 147 486 316 
Q 608 486 902 1190 
L 2221 4314 
L 2349 4314 
L 3923 710 
Q 4064 378 4176 262 
Q 4288 147 4525 122 
L 4525 0 
z
M 2861 1645 
L 2118 3405 
L 1382 1645 
L 2861 1645 
z
" transform="scale(0.015625)"/>
       <path id="STIXGeneral-Regular-5d" d="M 1568 -998 
L 218 -998 
L 218 -838 
L 781 -838 
Q 947 -838 1014 -768 
Q 1082 -698 1082 -544 
L 1082 3731 
Q 1082 4077 755 4077 
L 218 4077 
L 218 4237 
L 1568 4237 
L 1568 -998 
z
" transform="scale(0.015625)"/>
      </defs>
      <use xlink:href="#STIXGeneral-Regular-44"/>
      <use xlink:href="#STIXGeneral-Regular-69" x="72.199982"/>
      <use xlink:href="#STIXGeneral-Regular-73" x="99.999969"/>
      <use xlink:href="#STIXGeneral-Regular-74" x="138.899963"/>
      <use xlink:href="#STIXGeneral-Regular-61" x="166.699951"/>
      <use xlink:href="#STIXGeneral-Regular-6e" x="211.099945"/>
      <use xlink:href="#STIXGeneral-Regular-63" x="261.09993"/>
      <use xlink:href="#STIXGeneral-Regular-65" x="305.499924"/>
      <use xlink:href="#STIXGeneral-Regular-20" x="349.899918"/>
      <use xlink:href="#STIXGeneral-Regular-5b" x="374.899902"/>
      <use xlink:href="#STIXGeneral-Regular-c5" x="408.19989"/>
      <use xlink:href="#STIXGeneral-Regular-5d" x="480.399872"/>
     </g>
    </g>
   </g>
   <g id="line2d_16">
    <path d="M 73.832727 85.824 
L 79.68822 92.902103 
L 81.640051 94.79136 
L 83.591882 96.391617 
L 85.543713 97.710238 
L 86.844934 98.360856 
L 88.146154 98.737224 
L 89.447375 98.773279 
L 90.748595 98.461269 
L 93.351037 97.409394 
L 94.652257 97.484186 
L 95.302868 96.617324 
L 95.953478 96.199417 
L 96.604088 96.838213 
L 97.254698 97.981142 
L 98.555919 100.841002 
L 104.411412 114.711288 
L 105.712633 117.04817 
L 107.013853 118.86082 
L 108.315074 120.145259 
L 109.616294 120.958103 
L 110.917515 121.365877 
L 112.218736 121.492291 
L 114.170567 121.588707 
L 114.821177 121.73406 
L 115.471787 122.003545 
L 116.122398 122.43649 
L 116.773008 123.06608 
L 117.423618 123.915499 
L 118.074228 124.992916 
L 119.375449 127.807495 
L 120.67667 131.326928 
L 126.532163 148.36156 
L 127.182773 150.191698 
L 130.435824 161.418727 
L 131.737045 164.737171 
L 133.038266 167.051861 
L 133.688876 167.825884 
L 134.339486 168.323192 
L 134.990097 168.537199 
L 135.640707 168.469005 
L 136.291317 168.131253 
L 136.941927 167.550091 
L 138.243148 165.825205 
L 141.4962 158.933864 
L 142.14681 158.023205 
L 142.79742 157.408479 
L 143.448031 157.113323 
L 144.098641 157.122296 
L 144.749251 157.371472 
L 146.050472 158.221589 
L 146.701082 158.754986 
L 147.351692 159.538054 
L 148.002303 160.651785 
L 148.652913 162.079785 
L 149.954134 165.717132 
L 153.207185 176.092103 
L 153.857796 177.641505 
L 154.508406 178.801103 
L 155.159016 179.518553 
L 155.809627 179.776666 
L 156.460237 179.590426 
L 157.110847 178.997547 
L 157.761457 178.067652 
L 158.412068 176.850231 
L 159.713288 173.751021 
L 164.267561 162.099967 
L 165.568781 159.529812 
L 166.870002 157.576531 
L 168.171222 156.281865 
L 168.821833 155.865617 
L 169.472443 155.584401 
L 170.123053 155.432321 
L 170.773664 155.404747 
L 172.074884 155.688292 
L 173.376105 156.378812 
L 174.677326 157.436006 
L 175.978546 158.962697 
L 177.930377 161.300134 
L 184.43648 169.898435 
L 185.087091 170.634377 
L 185.737701 171.12644 
L 187.038921 171.695947 
L 188.340142 172.144187 
L 192.243804 172.639448 
L 195.496856 173.371349 
L 196.798076 173.46023 
L 198.749907 173.316522 
L 200.701738 172.915276 
L 202.653569 172.276537 
L 204.6054 171.435291 
L 207.207841 170.006744 
L 209.810282 168.514987 
L 211.762113 167.740354 
L 213.063334 167.44805 
L 214.364555 167.382799 
L 216.966996 168.093339 
L 218.268216 168.965604 
L 219.569437 169.945253 
L 220.870658 170.403105 
L 222.822489 171.39232 
L 224.77432 172.644446 
L 226.07554 173.44971 
L 231.280423 176.424787 
L 236.485305 179.309172 
L 237.786526 179.713667 
L 239.738357 179.961806 
L 241.690188 179.905222 
L 243.642019 179.580592 
L 245.59385 178.99696 
L 247.54568 178.154003 
L 250.148122 176.667125 
L 252.750563 174.923428 
L 256.003615 172.465075 
L 262.509718 167.139381 
L 265.762769 164.656639 
L 267.7146 163.44892 
L 269.015821 162.875719 
L 269.666431 162.697097 
L 270.967652 162.655682 
L 272.268872 162.985395 
L 274.871314 164.466128 
L 276.172534 165.312252 
L 278.774975 167.006879 
L 281.377417 168.507951 
L 282.678637 169.097444 
L 285.281079 170.006352 
L 287.232909 170.49828 
L 289.18474 170.809102 
L 290.485961 170.871454 
L 292.437792 170.737649 
L 294.389623 170.421093 
L 296.992064 169.760041 
L 300.245116 168.689652 
L 305.449998 166.944787 
L 307.401829 166.611232 
L 308.70305 166.585692 
L 310.00427 166.733528 
L 311.305491 167.052045 
L 313.257322 167.799617 
L 315.209153 168.767093 
L 318.462204 170.693786 
L 323.016477 173.422926 
L 324.317697 173.968592 
L 326.269528 174.439666 
L 327.570749 174.565213 
L 328.871969 174.530798 
L 330.8238 174.191258 
L 332.775631 173.552233 
L 334.727462 172.683596 
L 337.329903 171.289692 
L 346.438448 166.110124 
L 348.390279 165.288586 
L 350.34211 164.583184 
L 350.99272 163.419863 
L 351.64333 161.114325 
L 352.293941 159.721067 
L 352.944551 159.385801 
L 353.595161 159.524427 
L 354.896382 160.340867 
L 356.197602 161.452535 
L 362.053095 167.313147 
L 365.306147 169.867327 
L 367.908588 171.688649 
L 370.511029 173.259148 
L 373.113471 174.585738 
L 375.715912 175.598653 
L 378.318353 176.332838 
L 380.270184 176.698649 
L 382.222015 176.866004 
L 384.173846 176.849202 
L 386.125677 176.64122 
L 388.077508 176.23497 
L 390.029339 175.624899 
L 391.98117 174.808267 
L 393.28239 174.149935 
L 398.487273 170.49987 
L 398.487273 170.49987 
" clip-path="url(#p2d0ee2458d)" style="fill: none; stroke: #1f77b4; stroke-width: 1.5; stroke-linecap: square"/>
   </g>
   <g id="patch_3">
    <path d="M 57.6 307.584 
L 57.6 41.472 
" style="fill: none; stroke: #000000; stroke-width: 0.8; stroke-linejoin: miter; stroke-linecap: square"/>
   </g>
   <g id="patch_4">
    <path d="M 414.72 307.584 
L 414.72 41.472 
" style="fill: none; stroke: #000000; stroke-width: 0.8; stroke-linejoin: miter; stroke-linecap: square"/>
   </g>
   <g id="patch_5">
    <path d="M 57.6 307.584 
L 414.72 307.584 
" style="fill: none; stroke: #000000; stroke-width: 0.8; stroke-linejoin: miter; stroke-linecap: square"/>
   </g>
   <g id="patch_6">
    <path d="M 57.6 41.472 
L 414.72 41.472 
" style="fill: none; stroke: #000000; stroke-width: 0.8; stroke-linejoin: miter; stroke-linecap: square"/>
   </g>
   <g id="text_18">
    <!-- Average distance of each atom to reference protein -->
    <g transform="translate(113.701875 35.472) scale(0.12 -0.12)">
     <defs>
      <path id="STIXGeneral-Regular-41" d="M 4525 0 
L 2893 0 
L 2893 122 
Q 3149 122 3245 179 
Q 3334 224 3334 333 
Q 3334 499 3213 781 
L 2950 1382 
L 1274 1382 
L 979 653 
Q 922 506 922 384 
Q 922 237 1027 179 
Q 1133 122 1370 122 
L 1370 0 
L 96 0 
L 96 122 
Q 365 147 486 316 
Q 608 486 902 1190 
L 2221 4314 
L 2349 4314 
L 3923 710 
Q 4064 378 4176 262 
Q 4288 147 4525 122 
L 4525 0 
z
M 2861 1645 
L 2118 3405 
L 1382 1645 
L 2861 1645 
z
" transform="scale(0.015625)"/>
      <path id="STIXGeneral-Regular-76" d="M 3053 2880 
L 3053 2784 
Q 2906 2771 2835 2688 
Q 2765 2605 2637 2285 
L 1818 230 
Q 1690 -90 1638 -90 
Q 1587 -90 1523 77 
Q 1510 96 1497 141 
Q 1485 186 1472 211 
L 704 2048 
Q 499 2534 403 2652 
Q 307 2771 122 2784 
L 122 2880 
L 1376 2880 
L 1376 2784 
Q 1210 2771 1146 2732 
Q 1082 2694 1082 2611 
Q 1082 2509 1139 2368 
L 1792 730 
L 2426 2387 
Q 2464 2483 2464 2579 
Q 2464 2758 2163 2784 
L 2163 2880 
L 3053 2880 
z
" transform="scale(0.015625)"/>
      <path id="STIXGeneral-Regular-67" d="M 3008 2483 
L 2477 2483 
Q 2598 2208 2598 1946 
Q 2598 1453 2265 1203 
Q 1933 954 1600 954 
Q 1530 954 1357 973 
L 1235 986 
Q 1107 947 979 812 
Q 851 678 851 582 
Q 851 435 1350 410 
L 2176 371 
Q 2528 358 2739 172 
Q 2950 -13 2950 -314 
Q 2950 -685 2566 -986 
Q 2035 -1395 1286 -1395 
Q 826 -1395 502 -1212 
Q 179 -1030 179 -774 
Q 179 -595 320 -419 
Q 461 -243 806 6 
Q 602 102 534 172 
Q 467 243 467 346 
Q 467 531 762 787 
Q 909 915 1037 1043 
Q 717 1203 579 1401 
Q 442 1600 442 1901 
Q 442 2336 752 2640 
Q 1062 2944 1510 2944 
Q 1766 2944 2022 2848 
L 2163 2797 
Q 2349 2733 2515 2733 
L 3008 2733 
L 3008 2483 
z
M 973 2163 
L 973 2144 
Q 973 1683 1155 1398 
Q 1338 1114 1632 1114 
Q 1850 1114 1978 1270 
Q 2106 1427 2106 1690 
Q 2106 2112 1914 2464 
Q 1754 2765 1446 2765 
Q 1222 2765 1097 2605 
Q 973 2445 973 2163 
z
M 2771 -410 
Q 2771 -230 2595 -163 
Q 2419 -96 1978 -96 
Q 1344 -96 941 -13 
Q 749 -243 688 -348 
Q 627 -454 627 -563 
Q 627 -774 880 -902 
Q 1133 -1030 1555 -1030 
Q 2099 -1030 2435 -860 
Q 2771 -691 2771 -410 
z
" transform="scale(0.015625)"/>
      <path id="STIXGeneral-Regular-64" d="M 3142 269 
L 2202 -64 
L 2176 -45 
L 2176 365 
Q 1869 -64 1357 -64 
Q 826 -64 499 317 
Q 173 698 173 1312 
Q 173 1990 563 2467 
Q 954 2944 1504 2944 
Q 1850 2944 2176 2669 
L 2176 3667 
Q 2176 3866 2118 3930 
Q 2061 3994 1882 3994 
Q 1792 3994 1741 3987 
L 1741 4090 
Q 2323 4243 2682 4371 
L 2714 4358 
L 2714 730 
Q 2714 506 2768 435 
Q 2822 365 2995 365 
Q 3034 365 3142 371 
L 3142 269 
z
M 2176 653 
L 2176 2125 
Q 2176 2381 1981 2573 
Q 1786 2765 1523 2765 
Q 1158 2765 940 2438 
Q 723 2112 723 1568 
Q 723 979 963 624 
Q 1203 269 1606 269 
Q 1907 269 2080 474 
Q 2176 582 2176 653 
z
" transform="scale(0.015625)"/>
      <path id="STIXGeneral-Regular-66" d="M 134 2880 
L 659 2880 
Q 666 3264 710 3478 
Q 755 3693 883 3910 
Q 1152 4371 1786 4371 
Q 2074 4371 2262 4259 
Q 2451 4147 2451 3974 
Q 2451 3866 2374 3789 
Q 2298 3712 2182 3712 
Q 2029 3712 1894 3942 
Q 1741 4192 1555 4192 
Q 1197 4192 1197 3622 
L 1197 2880 
L 1978 2880 
L 1978 2675 
L 1197 2675 
L 1197 666 
Q 1197 307 1299 208 
Q 1402 109 1792 96 
L 1792 0 
L 128 0 
L 128 96 
Q 474 115 566 214 
Q 659 314 659 666 
L 659 2675 
L 134 2675 
L 134 2880 
z
" transform="scale(0.015625)"/>
      <path id="STIXGeneral-Regular-68" d="M 3117 0 
L 1760 0 
L 1760 96 
Q 2042 128 2118 224 
Q 2195 320 2195 653 
L 2195 1920 
Q 2195 2598 1722 2598 
Q 1530 2598 1370 2508 
Q 1210 2419 1005 2195 
L 1005 653 
Q 1005 320 1081 224 
Q 1158 128 1440 96 
L 1440 0 
L 58 0 
L 58 96 
Q 333 134 400 224 
Q 467 314 467 653 
L 467 3667 
Q 467 3872 406 3933 
Q 346 3994 141 3994 
Q 83 3994 64 3987 
L 64 4090 
L 237 4141 
Q 730 4288 973 4371 
L 1005 4352 
L 1005 2406 
Q 1229 2694 1446 2819 
Q 1664 2944 1946 2944 
Q 2733 2944 2733 1926 
L 2733 653 
Q 2733 320 2793 233 
Q 2854 147 3117 96 
L 3117 0 
z
" transform="scale(0.015625)"/>
      <path id="STIXGeneral-Regular-6d" d="M 4960 0 
L 3565 0 
L 3565 96 
Q 3834 122 3907 208 
Q 3981 294 3981 576 
L 3981 1894 
Q 3981 2278 3869 2444 
Q 3757 2611 3488 2611 
Q 3264 2611 3107 2521 
Q 2950 2432 2803 2221 
L 2803 608 
Q 2803 301 2896 201 
Q 2989 102 3264 96 
L 3264 0 
L 1830 0 
L 1830 96 
Q 2112 115 2189 188 
Q 2266 262 2266 550 
L 2266 1901 
Q 2266 2611 1850 2611 
Q 1670 2611 1468 2531 
Q 1267 2451 1171 2336 
Q 1088 2240 1088 2227 
L 1088 448 
Q 1088 243 1177 176 
Q 1267 109 1523 96 
L 1523 0 
L 102 0 
L 102 96 
Q 371 102 460 195 
Q 550 288 550 563 
L 550 2150 
Q 550 2387 499 2480 
Q 448 2573 326 2573 
Q 230 2573 122 2547 
L 122 2656 
Q 557 2778 1011 2944 
L 1062 2925 
L 1062 2451 
L 1075 2451 
Q 1363 2752 1584 2848 
Q 1805 2944 2054 2944 
Q 2560 2944 2733 2406 
Q 3232 2944 3776 2944 
Q 4518 2944 4518 1792 
L 4518 493 
Q 4518 282 4582 202 
Q 4646 122 4794 109 
L 4960 96 
L 4960 0 
z
" transform="scale(0.015625)"/>
      <path id="STIXGeneral-Regular-70" d="M 1018 2931 
L 1018 2438 
Q 1421 2944 1939 2944 
Q 2406 2944 2707 2560 
Q 3008 2176 3008 1581 
Q 3008 883 2621 409 
Q 2234 -64 1664 -64 
Q 1466 -64 1328 -6 
Q 1190 51 1018 211 
L 1018 -794 
Q 1018 -1094 1120 -1180 
Q 1222 -1267 1581 -1274 
L 1581 -1389 
L 32 -1389 
L 32 -1280 
Q 314 -1254 397 -1171 
Q 480 -1088 480 -838 
L 480 2157 
Q 480 2381 429 2451 
Q 378 2522 218 2522 
Q 115 2522 58 2515 
L 58 2618 
Q 506 2752 979 2944 
L 1018 2931 
z
M 1018 2138 
L 1018 563 
Q 1018 422 1238 281 
Q 1459 141 1683 141 
Q 2029 141 2243 467 
Q 2458 794 2458 1325 
Q 2458 1888 2243 2224 
Q 2029 2560 1670 2560 
Q 1446 2560 1232 2419 
Q 1018 2278 1018 2138 
z
" transform="scale(0.015625)"/>
     </defs>
     <use xlink:href="#STIXGeneral-Regular-41"/>
     <use xlink:href="#STIXGeneral-Regular-76" x="72.199982"/>
     <use xlink:href="#STIXGeneral-Regular-65" x="122.199966"/>
     <use xlink:href="#STIXGeneral-Regular-72" x="166.59996"/>
     <use xlink:href="#STIXGeneral-Regular-61" x="199.899948"/>
     <use xlink:href="#STIXGeneral-Regular-67" x="244.299942"/>
     <use xlink:href="#STIXGeneral-Regular-65" x="294.299927"/>
     <use xlink:href="#STIXGeneral-Regular-20" x="338.699921"/>
     <use xlink:href="#STIXGeneral-Regular-64" x="363.699905"/>
     <use xlink:href="#STIXGeneral-Regular-69" x="413.69989"/>
     <use xlink:href="#STIXGeneral-Regular-73" x="441.499878"/>
     <use xlink:href="#STIXGeneral-Regular-74" x="480.399872"/>
     <use xlink:href="#STIXGeneral-Regular-61" x="508.19986"/>
     <use xlink:href="#STIXGeneral-Regular-6e" x="552.599854"/>
     <use xlink:href="#STIXGeneral-Regular-63" x="602.599838"/>
     <use xlink:href="#STIXGeneral-Regular-65" x="646.999832"/>
     <use xlink:href="#STIXGeneral-Regular-20" x="691.399826"/>
     <use xlink:href="#STIXGeneral-Regular-6f" x="716.399811"/>
     <use xlink:href="#STIXGeneral-Regular-66" x="766.399796"/>
     <use xlink:href="#STIXGeneral-Regular-20" x="799.699783"/>
     <use xlink:href="#STIXGeneral-Regular-65" x="824.699768"/>
     <use xlink:href="#STIXGeneral-Regular-61" x="869.099762"/>
     <use xlink:href="#STIXGeneral-Regular-63" x="913.499756"/>
     <use xlink:href="#STIXGeneral-Regular-68" x="957.89975"/>
     <use xlink:href="#STIXGeneral-Regular-20" x="1007.899734"/>
     <use xlink:href="#STIXGeneral-Regular-61" x="1032.899719"/>
     <use xlink:href="#STIXGeneral-Regular-74" x="1077.299713"/>
     <use xlink:href="#STIXGeneral-Regular-6f" x="1105.099701"/>
     <use xlink:href="#STIXGeneral-Regular-6d" x="1155.099686"/>
     <use xlink:href="#STIXGeneral-Regular-20" x="1232.899673"/>
     <use xlink:href="#STIXGeneral-Regular-74" x="1257.899658"/>
     <use xlink:href="#STIXGeneral-Regular-6f" x="1285.699646"/>
     <use xlink:href="#STIXGeneral-Regular-20" x="1335.699631"/>
     <use xlink:href="#STIXGeneral-Regular-72" x="1360.699615"/>
     <use xlink:href="#STIXGeneral-Regular-65" x="1393.999603"/>
     <use xlink:href="#STIXGeneral-Regular-66" x="1438.399597"/>
     <use xlink:href="#STIXGeneral-Regular-65" x="1471.699585"/>
     <use xlink:href="#STIXGeneral-Regular-72" x="1516.099579"/>
     <use xlink:href="#STIXGeneral-Regular-65" x="1549.399567"/>
     <use xlink:href="#STIXGeneral-Regular-6e" x="1593.799561"/>
     <use xlink:href="#STIXGeneral-Regular-63" x="1643.799545"/>
     <use xlink:href="#STIXGeneral-Regular-65" x="1688.199539"/>
     <use xlink:href="#STIXGeneral-Regular-20" x="1732.599533"/>
     <use xlink:href="#STIXGeneral-Regular-70" x="1757.599518"/>
     <use xlink:href="#STIXGeneral-Regular-72" x="1807.599503"/>
     <use xlink:href="#STIXGeneral-Regular-6f" x="1840.89949"/>
     <use xlink:href="#STIXGeneral-Regular-74" x="1890.899475"/>
     <use xlink:href="#STIXGeneral-Regular-65" x="1918.699463"/>
     <use xlink:href="#STIXGeneral-Regular-69" x="1963.099457"/>
     <use xlink:href="#STIXGeneral-Regular-6e" x="1990.899445"/>
    </g>
   </g>
  </g>
 </g>
 <defs>
  <clipPath id="p2d0ee2458d">
   <rect x="57.6" y="41.472" width="357.12" height="266.112"/>
  </clipPath>
 </defs>
</svg>
