<?xml version="1.0" encoding="utf-8" standalone="no"?>
<!DOCTYPE svg PUBLIC "-//W3C//DTD SVG 1.1//EN"
  "http://www.w3.org/Graphics/SVG/1.1/DTD/svg11.dtd">
<svg xmlns:xlink="http://www.w3.org/1999/xlink" width="460.8pt" height="345.6pt" viewBox="0 0 460.8 345.6" xmlns="http://www.w3.org/2000/svg" version="1.1">
 <metadata>
  <rdf:RDF xmlns:dc="http://purl.org/dc/elements/1.1/" xmlns:cc="http://creativecommons.org/ns#" xmlns:rdf="http://www.w3.org/1999/02/22-rdf-syntax-ns#">
   <cc:Work>
    <dc:type rdf:resource="http://purl.org/dc/dcmitype/StillImage"/>
    <dc:date>2023-02-18T23:03:50.634451</dc:date>
    <dc:format>image/svg+xml</dc:format>
    <dc:creator>
     <cc:Agent>
      <dc:title>Matplotlib v3.6.2, https://matplotlib.org/</dc:title>
     </cc:Agent>
    </dc:creator>
   </cc:Work>
  </rdf:RDF>
 </metadata>
 <defs>
  <style type="text/css">*{stroke-linejoin: round; stroke-linecap: butt}</style>
 </defs>
 <g id="figure_1">
  <g id="patch_1">
   <path d="M 0 345.6 
L 460.8 345.6 
L 460.8 0 
L 0 0 
z
" style="fill: #ffffff"/>
  </g>
  <g id="axes_1">
   <g id="patch_2">
    <path d="M 57.6 307.584 
L 414.72 307.584 
L 414.72 41.472 
L 57.6 41.472 
z
" style="fill: #ffffff"/>
   </g>
   <g id="matplotlib.axis_1">
    <g id="xtick_1">
     <g id="line2d_1">
      <defs>
       <path id="mcbd2e294f1" d="M 0 0 
L 0 3.5 
" style="stroke: #000000; stroke-width: 0.8"/>
      </defs>
      <g>
       <use xlink:href="#mcbd2e294f1" x="73.832727" y="307.584" style="stroke: #000000; stroke-width: 0.8"/>
      </g>
     </g>
     <g id="text_1">
      <!-- 0 -->
      <g transform="translate(71.332727 321.413687) scale(0.1 -0.1)">
       <defs>
        <path id="STIXGeneral-Regular-30" d="M 3046 2112 
Q 3046 1683 2963 1302 
Q 2880 922 2717 602 
Q 2554 282 2266 96 
Q 1978 -90 1600 -90 
Q 1210 -90 915 108 
Q 621 307 461 640 
Q 301 973 227 1350 
Q 154 1728 154 2150 
Q 154 2746 301 3222 
Q 448 3699 790 4012 
Q 1133 4326 1626 4326 
Q 2253 4326 2649 3712 
Q 3046 3098 3046 2112 
z
M 2432 2080 
Q 2432 3091 2217 3625 
Q 2003 4160 1587 4160 
Q 1190 4160 979 3622 
Q 768 3085 768 2106 
Q 768 1120 979 598 
Q 1190 77 1600 77 
Q 2003 77 2217 598 
Q 2432 1120 2432 2080 
z
" transform="scale(0.015625)"/>
       </defs>
       <use xlink:href="#STIXGeneral-Regular-30"/>
      </g>
     </g>
    </g>
    <g id="xtick_2">
     <g id="line2d_2">
      <g>
       <use xlink:href="#mcbd2e294f1" x="151.687534" y="307.584" style="stroke: #000000; stroke-width: 0.8"/>
      </g>
     </g>
     <g id="text_2">
      <!-- 100 -->
      <g transform="translate(144.187534 321.413687) scale(0.1 -0.1)">
       <defs>
        <path id="STIXGeneral-Regular-31" d="M 2522 0 
L 755 0 
L 755 96 
Q 1107 115 1235 227 
Q 1363 339 1363 608 
L 1363 3482 
Q 1363 3795 1171 3795 
Q 1082 3795 883 3718 
L 710 3654 
L 710 3744 
L 1856 4326 
L 1914 4307 
L 1914 486 
Q 1914 275 2042 185 
Q 2170 96 2522 96 
L 2522 0 
z
" transform="scale(0.015625)"/>
       </defs>
       <use xlink:href="#STIXGeneral-Regular-31"/>
       <use xlink:href="#STIXGeneral-Regular-30" x="49.999985"/>
       <use xlink:href="#STIXGeneral-Regular-30" x="99.999969"/>
      </g>
     </g>
    </g>
    <g id="xtick_3">
     <g id="line2d_3">
      <g>
       <use xlink:href="#mcbd2e294f1" x="229.542341" y="307.584" style="stroke: #000000; stroke-width: 0.8"/>
      </g>
     </g>
     <g id="text_3">
      <!-- 200 -->
      <g transform="translate(222.042341 321.413687) scale(0.1 -0.1)">
       <defs>
        <path id="STIXGeneral-Regular-32" d="M 3034 877 
L 2688 0 
L 186 0 
L 186 77 
L 1325 1286 
Q 1773 1754 1965 2144 
Q 2157 2534 2157 2950 
Q 2157 3379 1920 3616 
Q 1683 3853 1267 3853 
Q 922 3853 720 3673 
Q 518 3494 326 3021 
L 192 3053 
Q 301 3648 630 3987 
Q 960 4326 1523 4326 
Q 2054 4326 2380 4006 
Q 2707 3686 2707 3200 
Q 2707 2477 1888 1613 
L 832 486 
L 2330 486 
Q 2541 486 2665 569 
Q 2790 653 2944 915 
L 3034 877 
z
" transform="scale(0.015625)"/>
       </defs>
       <use xlink:href="#STIXGeneral-Regular-32"/>
       <use xlink:href="#STIXGeneral-Regular-30" x="49.999985"/>
       <use xlink:href="#STIXGeneral-Regular-30" x="99.999969"/>
      </g>
     </g>
    </g>
    <g id="xtick_4">
     <g id="line2d_4">
      <g>
       <use xlink:href="#mcbd2e294f1" x="307.397148" y="307.584" style="stroke: #000000; stroke-width: 0.8"/>
      </g>
     </g>
     <g id="text_4">
      <!-- 300 -->
      <g transform="translate(299.897148 321.413687) scale(0.1 -0.1)">
       <defs>
        <path id="STIXGeneral-Regular-33" d="M 390 3264 
L 288 3290 
Q 435 3770 748 4048 
Q 1062 4326 1542 4326 
Q 1990 4326 2265 4083 
Q 2541 3840 2541 3450 
Q 2541 2925 1946 2566 
Q 2298 2413 2477 2227 
Q 2758 1914 2758 1402 
Q 2758 890 2464 506 
Q 2246 211 1840 60 
Q 1434 -90 979 -90 
Q 262 -90 262 275 
Q 262 378 339 442 
Q 416 506 525 506 
Q 685 506 915 339 
Q 1197 141 1466 141 
Q 1818 141 2058 425 
Q 2298 710 2298 1120 
Q 2298 1856 1632 2048 
Q 1434 2112 979 2112 
L 979 2202 
Q 1338 2323 1517 2432 
Q 2035 2726 2035 3290 
Q 2035 3610 1852 3776 
Q 1670 3942 1344 3942 
Q 768 3942 390 3264 
z
" transform="scale(0.015625)"/>
       </defs>
       <use xlink:href="#STIXGeneral-Regular-33"/>
       <use xlink:href="#STIXGeneral-Regular-30" x="49.999985"/>
       <use xlink:href="#STIXGeneral-Regular-30" x="99.999969"/>
      </g>
     </g>
    </g>
    <g id="xtick_5">
     <g id="line2d_5">
      <g>
       <use xlink:href="#mcbd2e294f1" x="385.251956" y="307.584" style="stroke: #000000; stroke-width: 0.8"/>
      </g>
     </g>
     <g id="text_5">
      <!-- 400 -->
      <g transform="translate(377.751956 321.413687) scale(0.1 -0.1)">
       <defs>
        <path id="STIXGeneral-Regular-34" d="M 3027 1069 
L 2368 1069 
L 2368 0 
L 1869 0 
L 1869 1069 
L 77 1069 
L 77 1478 
L 2086 4326 
L 2368 4326 
L 2368 1478 
L 3027 1478 
L 3027 1069 
z
M 1869 1478 
L 1869 3674 
L 333 1478 
L 1869 1478 
z
" transform="scale(0.015625)"/>
       </defs>
       <use xlink:href="#STIXGeneral-Regular-34"/>
       <use xlink:href="#STIXGeneral-Regular-30" x="49.999985"/>
       <use xlink:href="#STIXGeneral-Regular-30" x="99.999969"/>
      </g>
     </g>
    </g>
    <g id="text_6">
     <!-- Iterations -->
     <g transform="translate(217.274844 334.413687) scale(0.1 -0.1)">
      <defs>
       <path id="STIXGeneral-Regular-49" d="M 2016 0 
L 115 0 
L 115 122 
Q 518 134 627 240 
Q 736 346 736 717 
L 736 3526 
Q 736 3898 633 3994 
Q 531 4090 115 4115 
L 115 4237 
L 2016 4237 
L 2016 4115 
Q 1613 4096 1501 3993 
Q 1389 3891 1389 3526 
L 1389 717 
Q 1389 358 1504 246 
Q 1619 134 2016 122 
L 2016 0 
z
" transform="scale(0.015625)"/>
       <path id="STIXGeneral-Regular-74" d="M 1702 493 
L 1786 422 
Q 1478 -64 1011 -64 
Q 448 -64 448 749 
L 448 2675 
L 109 2675 
Q 83 2694 83 2720 
Q 83 2771 192 2842 
Q 435 2982 813 3526 
Q 826 3546 874 3606 
Q 922 3667 941 3706 
Q 986 3706 986 3622 
L 986 2880 
L 1632 2880 
L 1632 2675 
L 986 2675 
L 986 845 
Q 986 538 1062 403 
Q 1139 269 1318 269 
Q 1510 269 1702 493 
z
" transform="scale(0.015625)"/>
       <path id="STIXGeneral-Regular-65" d="M 2611 1050 
L 2714 1005 
Q 2330 -64 1376 -64 
Q 813 -64 486 329 
Q 160 723 160 1389 
Q 160 2074 525 2509 
Q 890 2944 1485 2944 
Q 2061 2944 2374 2502 
Q 2560 2246 2592 1773 
L 621 1773 
Q 646 1370 700 1158 
Q 755 947 915 730 
Q 1184 378 1626 378 
Q 1939 378 2153 531 
Q 2368 685 2611 1050 
z
M 634 1978 
L 1939 1978 
Q 1882 2381 1750 2547 
Q 1619 2714 1312 2714 
Q 1043 2714 864 2525 
Q 685 2336 634 1978 
z
" transform="scale(0.015625)"/>
       <path id="STIXGeneral-Regular-72" d="M 1024 2931 
L 1024 2342 
Q 1267 2688 1430 2816 
Q 1594 2944 1792 2944 
Q 1958 2944 2051 2854 
Q 2144 2765 2144 2605 
Q 2144 2470 2077 2393 
Q 2010 2317 1894 2317 
Q 1773 2317 1638 2445 
Q 1536 2541 1472 2541 
Q 1338 2541 1181 2355 
Q 1024 2170 1024 2016 
L 1024 576 
Q 1024 301 1133 205 
Q 1242 109 1568 96 
L 1568 0 
L 32 0 
L 32 96 
Q 339 154 412 224 
Q 486 294 486 538 
L 486 2138 
Q 486 2349 438 2435 
Q 390 2522 269 2522 
Q 166 2522 45 2496 
L 45 2598 
Q 448 2726 992 2944 
L 1024 2931 
z
" transform="scale(0.015625)"/>
       <path id="STIXGeneral-Regular-61" d="M 2829 422 
L 2829 243 
Q 2586 -64 2253 -64 
Q 1888 -64 1843 403 
L 1837 403 
Q 1427 -64 909 -64 
Q 608 -64 422 112 
Q 237 288 237 602 
Q 237 1050 685 1350 
Q 992 1555 1837 1869 
L 1837 2214 
Q 1837 2502 1699 2646 
Q 1562 2790 1338 2790 
Q 1146 2790 1018 2697 
Q 890 2605 890 2477 
Q 890 2419 909 2348 
Q 928 2278 928 2208 
Q 928 2112 841 2029 
Q 755 1946 634 1946 
Q 525 1946 441 2029 
Q 358 2112 358 2240 
Q 358 2547 685 2752 
Q 986 2944 1421 2944 
Q 1939 2944 2176 2656 
Q 2291 2522 2323 2384 
Q 2355 2246 2355 1946 
L 2355 723 
Q 2355 301 2554 301 
Q 2682 301 2829 422 
z
M 1837 813 
L 1837 1715 
Q 1248 1510 1018 1293 
Q 800 1094 800 800 
Q 800 557 921 432 
Q 1043 307 1242 307 
Q 1453 307 1613 410 
Q 1747 506 1792 589 
Q 1837 672 1837 813 
z
" transform="scale(0.015625)"/>
       <path id="STIXGeneral-Regular-69" d="M 1152 4045 
Q 1152 3904 1056 3811 
Q 960 3718 819 3718 
Q 685 3718 592 3811 
Q 499 3904 499 4045 
Q 499 4179 595 4275 
Q 691 4371 826 4371 
Q 966 4371 1059 4275 
Q 1152 4179 1152 4045 
z
M 1619 0 
L 102 0 
L 102 96 
Q 435 115 521 211 
Q 608 307 608 666 
L 608 2118 
Q 608 2342 563 2432 
Q 518 2522 397 2522 
Q 243 2522 128 2490 
L 128 2592 
L 1120 2944 
L 1146 2918 
L 1146 672 
Q 1146 314 1226 218 
Q 1306 122 1619 96 
L 1619 0 
z
" transform="scale(0.015625)"/>
       <path id="STIXGeneral-Regular-6f" d="M 3008 1478 
Q 3008 806 2608 371 
Q 2208 -64 1568 -64 
Q 979 -64 582 368 
Q 186 800 186 1459 
Q 186 2125 582 2534 
Q 979 2944 1626 2944 
Q 2221 2944 2614 2537 
Q 3008 2131 3008 1478 
z
M 2432 1306 
Q 2432 2035 2112 2445 
Q 1856 2765 1504 2765 
Q 1171 2765 966 2493 
Q 762 2221 762 1747 
Q 762 928 1101 435 
Q 1318 115 1677 115 
Q 2029 115 2230 432 
Q 2432 749 2432 1306 
z
" transform="scale(0.015625)"/>
       <path id="STIXGeneral-Regular-6e" d="M 3104 0 
L 1773 0 
L 1779 96 
Q 2016 115 2096 233 
Q 2176 352 2176 672 
L 2176 1946 
Q 2176 2592 1709 2592 
Q 1549 2592 1408 2515 
Q 1267 2438 1050 2227 
L 1050 461 
Q 1050 269 1136 192 
Q 1222 115 1466 96 
L 1466 0 
L 115 0 
L 115 96 
Q 358 115 435 214 
Q 512 314 512 602 
L 512 2157 
Q 512 2394 467 2483 
Q 422 2573 288 2573 
Q 160 2573 102 2547 
L 102 2656 
Q 550 2784 979 2944 
L 1030 2925 
L 1030 2426 
L 1037 2426 
Q 1491 2944 1958 2944 
Q 2323 2944 2518 2688 
Q 2714 2432 2714 1958 
L 2714 544 
Q 2714 288 2790 205 
Q 2867 122 3104 96 
L 3104 0 
z
" transform="scale(0.015625)"/>
       <path id="STIXGeneral-Regular-73" d="M 998 1926 
L 1664 1523 
Q 1984 1331 2105 1164 
Q 2227 998 2227 736 
Q 2227 416 1961 176 
Q 1696 -64 1331 -64 
Q 1030 -64 864 -6 
Q 691 51 570 51 
Q 461 51 416 -26 
L 333 -26 
L 333 979 
L 435 979 
Q 538 512 730 294 
Q 922 77 1248 77 
Q 1485 77 1632 211 
Q 1779 346 1779 550 
Q 1779 845 1440 1030 
L 1094 1222 
Q 326 1651 326 2150 
Q 326 2522 566 2730 
Q 806 2938 1210 2938 
Q 1491 2938 1638 2867 
Q 1754 2816 1818 2816 
Q 1862 2816 1920 2880 
L 1990 2880 
L 2022 2010 
L 1926 2010 
Q 1818 2445 1654 2621 
Q 1491 2797 1203 2797 
Q 986 2797 854 2688 
Q 723 2579 723 2362 
Q 723 2253 796 2128 
Q 870 2003 998 1926 
z
" transform="scale(0.015625)"/>
      </defs>
      <use xlink:href="#STIXGeneral-Regular-49"/>
      <use xlink:href="#STIXGeneral-Regular-74" x="33.299988"/>
      <use xlink:href="#STIXGeneral-Regular-65" x="61.099976"/>
      <use xlink:href="#STIXGeneral-Regular-72" x="105.499969"/>
      <use xlink:href="#STIXGeneral-Regular-61" x="138.799957"/>
      <use xlink:href="#STIXGeneral-Regular-74" x="183.199951"/>
      <use xlink:href="#STIXGeneral-Regular-69" x="210.999939"/>
      <use xlink:href="#STIXGeneral-Regular-6f" x="238.799927"/>
      <use xlink:href="#STIXGeneral-Regular-6e" x="288.799911"/>
      <use xlink:href="#STIXGeneral-Regular-73" x="338.799896"/>
     </g>
    </g>
   </g>
   <g id="matplotlib.axis_2">
    <g id="ytick_1">
     <g id="line2d_6">
      <defs>
       <path id="m147c78ab35" d="M 0 0 
L -3.5 0 
" style="stroke: #000000; stroke-width: 0.8"/>
      </defs>
      <g>
       <use xlink:href="#m147c78ab35" x="57.6" y="307.584" style="stroke: #000000; stroke-width: 0.8"/>
      </g>
     </g>
     <g id="text_7">
      <!-- 0.0 -->
      <g transform="translate(38.1 310.998844) scale(0.1 -0.1)">
       <defs>
        <path id="STIXGeneral-Regular-2e" d="M 1158 275 
Q 1158 134 1052 32 
Q 947 -70 800 -70 
Q 653 -70 550 32 
Q 448 134 448 281 
Q 448 429 553 534 
Q 659 640 806 640 
Q 947 640 1052 531 
Q 1158 422 1158 275 
z
" transform="scale(0.015625)"/>
       </defs>
       <use xlink:href="#STIXGeneral-Regular-30"/>
       <use xlink:href="#STIXGeneral-Regular-2e" x="49.999985"/>
       <use xlink:href="#STIXGeneral-Regular-30" x="74.999969"/>
      </g>
     </g>
    </g>
    <g id="ytick_2">
     <g id="line2d_7">
      <g>
       <use xlink:href="#m147c78ab35" x="57.6" y="255.473773" style="stroke: #000000; stroke-width: 0.8"/>
      </g>
     </g>
     <g id="text_8">
      <!-- 0.1 -->
      <g transform="translate(38.1 258.888616) scale(0.1 -0.1)">
       <use xlink:href="#STIXGeneral-Regular-30"/>
       <use xlink:href="#STIXGeneral-Regular-2e" x="49.999985"/>
       <use xlink:href="#STIXGeneral-Regular-31" x="74.999969"/>
      </g>
     </g>
    </g>
    <g id="ytick_3">
     <g id="line2d_8">
      <g>
       <use xlink:href="#m147c78ab35" x="57.6" y="203.363545" style="stroke: #000000; stroke-width: 0.8"/>
      </g>
     </g>
     <g id="text_9">
      <!-- 0.2 -->
      <g transform="translate(38.1 206.778389) scale(0.1 -0.1)">
       <use xlink:href="#STIXGeneral-Regular-30"/>
       <use xlink:href="#STIXGeneral-Regular-2e" x="49.999985"/>
       <use xlink:href="#STIXGeneral-Regular-32" x="74.999969"/>
      </g>
     </g>
    </g>
    <g id="ytick_4">
     <g id="line2d_9">
      <g>
       <use xlink:href="#m147c78ab35" x="57.6" y="151.253318" style="stroke: #000000; stroke-width: 0.8"/>
      </g>
     </g>
     <g id="text_10">
      <!-- 0.3 -->
      <g transform="translate(38.1 154.668161) scale(0.1 -0.1)">
       <use xlink:href="#STIXGeneral-Regular-30"/>
       <use xlink:href="#STIXGeneral-Regular-2e" x="49.999985"/>
       <use xlink:href="#STIXGeneral-Regular-33" x="74.999969"/>
      </g>
     </g>
    </g>
    <g id="ytick_5">
     <g id="line2d_10">
      <g>
       <use xlink:href="#m147c78ab35" x="57.6" y="99.14309" style="stroke: #000000; stroke-width: 0.8"/>
      </g>
     </g>
     <g id="text_11">
      <!-- 0.4 -->
      <g transform="translate(38.1 102.557934) scale(0.1 -0.1)">
       <use xlink:href="#STIXGeneral-Regular-30"/>
       <use xlink:href="#STIXGeneral-Regular-2e" x="49.999985"/>
       <use xlink:href="#STIXGeneral-Regular-34" x="74.999969"/>
      </g>
     </g>
    </g>
    <g id="ytick_6">
     <g id="line2d_11">
      <g>
       <use xlink:href="#m147c78ab35" x="57.6" y="47.032863" style="stroke: #000000; stroke-width: 0.8"/>
      </g>
     </g>
     <g id="text_12">
      <!-- 0.5 -->
      <g transform="translate(38.1 50.447706) scale(0.1 -0.1)">
       <defs>
        <path id="STIXGeneral-Regular-35" d="M 2803 4358 
L 2573 3814 
Q 2534 3731 2400 3731 
L 1158 3731 
L 902 3187 
Q 1606 3053 1920 2896 
Q 2234 2739 2502 2368 
Q 2726 2061 2726 1555 
Q 2726 1094 2576 780 
Q 2426 467 2099 224 
Q 1664 -90 1011 -90 
Q 646 -90 422 19 
Q 198 128 198 307 
Q 198 550 486 550 
Q 717 550 960 352 
Q 1210 147 1414 147 
Q 1747 147 2012 480 
Q 2278 813 2278 1229 
Q 2278 1843 1850 2189 
Q 1293 2637 486 2637 
Q 410 2637 410 2688 
L 416 2720 
L 1114 4237 
L 2438 4237 
Q 2547 4237 2608 4269 
Q 2669 4301 2746 4403 
L 2803 4358 
z
" transform="scale(0.015625)"/>
       </defs>
       <use xlink:href="#STIXGeneral-Regular-30"/>
       <use xlink:href="#STIXGeneral-Regular-2e" x="49.999985"/>
       <use xlink:href="#STIXGeneral-Regular-35" x="74.999969"/>
      </g>
     </g>
    </g>
    <g id="text_13">
     <!-- Distance [Å] -->
     <g transform="translate(31.929688 200.213937) rotate(-90) scale(0.1 -0.1)">
      <defs>
       <path id="STIXGeneral-Regular-44" d="M 102 4237 
L 1830 4237 
Q 3078 4237 3750 3654 
Q 4384 3110 4384 2138 
Q 4384 966 3514 410 
Q 2880 0 1901 0 
L 102 0 
L 102 122 
Q 474 147 570 252 
Q 666 358 666 736 
L 666 3520 
Q 666 3891 570 3990 
Q 474 4090 102 4115 
L 102 4237 
z
M 1318 3731 
L 1318 538 
Q 1318 365 1379 301 
Q 1440 237 1626 237 
Q 2125 237 2432 307 
Q 2739 378 3021 570 
Q 3686 1018 3686 2099 
Q 3686 3027 3078 3558 
Q 2803 3802 2476 3901 
Q 2150 4000 1658 4000 
Q 1472 4000 1395 3942 
Q 1318 3885 1318 3731 
z
" transform="scale(0.015625)"/>
       <path id="STIXGeneral-Regular-63" d="M 2547 998 
L 2637 941 
Q 2362 403 2112 205 
Q 1786 -64 1376 -64 
Q 845 -64 502 336 
Q 160 736 160 1357 
Q 160 2170 698 2618 
Q 1094 2944 1562 2944 
Q 1965 2944 2256 2749 
Q 2547 2554 2547 2285 
Q 2547 2176 2457 2096 
Q 2368 2016 2246 2016 
Q 2022 2016 1939 2310 
L 1901 2451 
Q 1850 2630 1773 2694 
Q 1696 2758 1523 2758 
Q 1133 2758 893 2451 
Q 653 2144 653 1645 
Q 653 1094 928 745 
Q 1203 397 1645 397 
Q 1920 397 2118 528 
Q 2317 659 2547 998 
z
" transform="scale(0.015625)"/>
       <path id="STIXGeneral-Regular-20" transform="scale(0.015625)"/>
       <path id="STIXGeneral-Regular-5b" d="M 1914 -998 
L 563 -998 
L 563 4237 
L 1914 4237 
L 1914 4077 
L 1382 4077 
Q 1216 4077 1133 4006 
Q 1050 3936 1050 3770 
L 1050 -493 
Q 1050 -838 1382 -838 
L 1914 -838 
L 1914 -998 
z
" transform="scale(0.015625)"/>
       <path id="STIXGeneral-Regular-c5" d="M 2752 5961 
Q 2938 5773 2938 5510 
Q 2938 5248 2749 5062 
Q 2560 4877 2291 4877 
Q 2029 4877 1846 5062 
Q 1664 5248 1664 5517 
Q 1664 5779 1853 5964 
Q 2042 6150 2310 6150 
Q 2566 6150 2752 5961 
z
M 2720 5517 
Q 2720 5690 2595 5811 
Q 2470 5933 2291 5933 
Q 2125 5933 2003 5808 
Q 1882 5683 1882 5517 
Q 1882 5338 2003 5216 
Q 2125 5094 2291 5094 
Q 2470 5094 2595 5216 
Q 2720 5338 2720 5517 
z
M 4525 0 
L 2893 0 
L 2893 122 
Q 3149 122 3245 179 
Q 3334 224 3334 333 
Q 3334 499 3213 781 
L 2950 1382 
L 1274 1382 
L 979 653 
Q 922 506 922 384 
Q 922 237 1027 179 
Q 1133 122 1370 122 
L 1370 0 
L 96 0 
L 96 122 
Q 365 147 486 316 
Q 608 486 902 1190 
L 2221 4314 
L 2349 4314 
L 3923 710 
Q 4064 378 4176 262 
Q 4288 147 4525 122 
L 4525 0 
z
M 2861 1645 
L 2118 3405 
L 1382 1645 
L 2861 1645 
z
" transform="scale(0.015625)"/>
       <path id="STIXGeneral-Regular-5d" d="M 1568 -998 
L 218 -998 
L 218 -838 
L 781 -838 
Q 947 -838 1014 -768 
Q 1082 -698 1082 -544 
L 1082 3731 
Q 1082 4077 755 4077 
L 218 4077 
L 218 4237 
L 1568 4237 
L 1568 -998 
z
" transform="scale(0.015625)"/>
      </defs>
      <use xlink:href="#STIXGeneral-Regular-44"/>
      <use xlink:href="#STIXGeneral-Regular-69" x="72.199982"/>
      <use xlink:href="#STIXGeneral-Regular-73" x="99.999969"/>
      <use xlink:href="#STIXGeneral-Regular-74" x="138.899963"/>
      <use xlink:href="#STIXGeneral-Regular-61" x="166.699951"/>
      <use xlink:href="#STIXGeneral-Regular-6e" x="211.099945"/>
      <use xlink:href="#STIXGeneral-Regular-63" x="261.09993"/>
      <use xlink:href="#STIXGeneral-Regular-65" x="305.499924"/>
      <use xlink:href="#STIXGeneral-Regular-20" x="349.899918"/>
      <use xlink:href="#STIXGeneral-Regular-5b" x="374.899902"/>
      <use xlink:href="#STIXGeneral-Regular-c5" x="408.19989"/>
      <use xlink:href="#STIXGeneral-Regular-5d" x="480.399872"/>
     </g>
    </g>
   </g>
   <g id="line2d_12">
    <path d="M 73.832727 236.761236 
L 74.611275 235.264543 
L 75.389823 234.519892 
L 76.168371 234.456921 
L 76.94692 235.052725 
L 77.725468 236.277692 
L 78.504016 238.05821 
L 80.061112 242.752852 
L 82.396756 250.255401 
L 83.953852 254.433429 
L 86.289496 260.372438 
L 88.625141 266.823028 
L 89.403689 267.68316 
L 90.182237 267.389599 
L 90.960785 266.105099 
L 91.739333 263.742489 
L 92.517881 260.256769 
L 93.296429 255.827095 
L 94.853525 245.101078 
L 97.189169 228.543006 
L 98.746266 219.23642 
L 99.524814 215.232566 
L 100.303362 211.815689 
L 101.08191 209.152641 
L 101.860458 207.353265 
L 103.417554 205.151629 
L 104.196102 204.020443 
L 104.97465 202.651878 
L 105.753198 200.865622 
L 108.86739 191.562076 
L 109.645939 190.626959 
L 110.424487 190.451094 
L 111.203035 191.032268 
L 111.981583 192.336999 
L 114.317227 198.099911 
L 115.095775 199.010173 
L 115.874323 198.798172 
L 116.652871 196.600312 
L 117.431419 192.434238 
L 118.209967 186.873411 
L 119.767063 173.335557 
L 122.102708 152.330206 
L 122.881256 146.393798 
L 123.659804 141.416798 
L 124.438352 137.637888 
L 125.2169 135.235337 
L 125.995448 134.284807 
L 126.773996 134.771071 
L 127.552544 136.810545 
L 128.331092 140.157751 
L 129.888188 149.366786 
L 132.223833 164.076216 
L 133.002381 167.984301 
L 133.780929 171.147727 
L 134.559477 173.468545 
L 135.338025 174.758026 
L 136.116573 174.932332 
L 136.895121 174.185264 
L 137.673669 172.736247 
L 138.452217 160.428887 
L 139.230765 158.40209 
L 140.009313 158.023903 
L 140.787861 158.369513 
L 141.566409 159.466586 
L 143.123506 177.369786 
L 143.902054 180.828273 
L 144.680602 183.669424 
L 145.45915 185.51287 
L 146.237698 186.250553 
L 147.016246 186.067645 
L 147.794794 184.950172 
L 148.573342 181.930782 
L 149.35189 175.948794 
L 150.908986 161.630502 
L 151.687534 139.03536 
L 152.466082 132.353425 
L 153.24463 120.907546 
L 154.023179 119.869008 
L 155.580275 109.735671 
L 156.358823 105.960498 
L 157.137371 103.173038 
L 157.915919 101.281194 
L 159.473015 98.632436 
L 160.251563 96.684686 
L 161.030111 93.53135 
L 161.808659 89.512918 
L 162.587207 86.759116 
L 163.365755 85.824 
L 164.144303 87.311017 
L 164.922852 91.855191 
L 165.7014 99.337177 
L 166.479948 109.791561 
L 167.258496 122.964502 
L 169.59414 168.558635 
L 170.372688 180.783693 
L 171.151236 182.798877 
L 171.929784 171.790243 
L 173.48688 145.55228 
L 174.265428 135.647204 
L 175.043976 128.448368 
L 175.822525 130.124841 
L 176.601073 123.456637 
L 177.379621 124.667294 
L 178.158169 127.957295 
L 178.936717 132.834701 
L 180.493813 145.368854 
L 181.272361 154.180661 
L 182.050909 173.525151 
L 183.608005 184.546599 
L 185.165101 194.002392 
L 186.722198 202.034907 
L 188.279294 208.848902 
L 189.057842 211.810272 
L 189.83639 214.331703 
L 190.614938 216.232494 
L 191.393486 217.615049 
L 192.172034 218.534343 
L 192.950582 218.88795 
L 193.72913 218.740775 
L 194.507678 218.154648 
L 195.286226 211.127656 
L 196.064774 215.853544 
L 196.843322 212.799568 
L 197.621871 211.578013 
L 198.400419 208.69487 
L 199.178967 206.423486 
L 199.957515 204.53504 
L 200.736063 203.244299 
L 201.514611 201.581187 
L 202.293159 205.200533 
L 203.071707 199.286426 
L 203.850255 195.051719 
L 204.628803 197.239615 
L 205.407351 197.943099 
L 206.185899 199.05981 
L 206.964447 200.567913 
L 207.742995 208.9969 
L 208.521543 212.126951 
L 209.300092 212.782771 
L 210.857188 211.275204 
L 211.635736 208.858095 
L 212.414284 212.699537 
L 213.192832 212.699745 
L 213.97138 209.019485 
L 214.749928 209.866609 
L 215.528476 210.981839 
L 217.085572 213.797106 
L 217.86412 214.699424 
L 220.199765 216.141175 
L 220.978313 216.807794 
L 221.756861 217.142045 
L 222.535409 217.342249 
L 223.313957 218.020187 
L 224.871053 219.946117 
L 227.206697 223.550919 
L 228.763793 226.132408 
L 229.542341 227.619585 
L 230.320889 232.324049 
L 231.877986 234.74735 
L 232.656534 235.856572 
L 234.992178 240.200636 
L 235.770726 242.631199 
L 236.549274 250.189543 
L 241.999111 257.479558 
L 242.777659 255.820333 
L 243.556207 258.933122 
L 244.334755 259.318393 
L 245.113303 260.471641 
L 245.891851 258.79012 
L 247.448947 259.752298 
L 248.227495 262.341622 
L 249.006043 265.418269 
L 250.563139 266.039245 
L 252.120235 266.123067 
L 253.677332 266.08528 
L 255.234428 265.827541 
L 256.012976 272.27486 
L 259.127168 273.530513 
L 260.684264 274.022784 
L 261.462812 274.861209 
L 263.798457 275.152618 
L 264.577005 271.12147 
L 265.355553 274.498921 
L 266.134101 267.276507 
L 268.469745 267.603587 
L 269.248293 267.576401 
L 270.026841 267.416927 
L 270.805389 274.003155 
L 272.362485 273.465725 
L 273.141033 275.094546 
L 276.255226 273.459889 
L 277.812322 272.372942 
L 281.705062 269.55416 
L 283.262158 269.122504 
L 285.597802 268.540917 
L 287.154899 268.347363 
L 289.490543 268.332186 
L 291.826187 268.616078 
L 294.161831 269.212635 
L 295.718927 269.799706 
L 296.497475 268.825416 
L 297.276024 270.477303 
L 299.611668 271.809413 
L 301.168764 272.863706 
L 301.947312 273.491442 
L 302.72586 272.606979 
L 303.504408 274.640207 
L 305.061504 276.009108 
L 305.840052 274.932882 
L 306.6186 277.299281 
L 308.175697 278.475891 
L 308.954245 276.779913 
L 309.732793 279.292557 
L 311.289889 279.95442 
L 312.068437 277.598435 
L 312.846985 280.138395 
L 313.625533 277.609358 
L 314.404081 280.049616 
L 315.182629 279.93023 
L 315.961177 277.594279 
L 316.739725 277.383647 
L 317.518273 279.759205 
L 318.296821 277.585406 
L 320.632466 277.98876 
L 322.96811 278.594695 
L 323.746658 279.843797 
L 329.196494 279.232895 
L 330.753591 278.678489 
L 332.310687 277.876009 
L 333.089235 273.962142 
L 336.203427 272.159276 
L 337.760523 271.099608 
L 340.874716 268.186864 
L 343.21036 265.710765 
L 346.324552 262.358413 
L 348.660196 260.220581 
L 350.217292 258.979422 
L 351.774388 258.11239 
L 353.331485 257.719047 
L 354.888581 257.609609 
L 357.224225 257.750565 
L 363.45261 258.637053 
L 365.009706 259.079324 
L 366.566802 259.74697 
L 368.123898 260.719559 
L 369.680994 262.016201 
L 371.23809 263.592847 
L 372.016638 264.455818 
L 372.795186 265.489561 
L 373.573734 267.561146 
L 374.352283 268.021773 
L 375.130831 268.317704 
L 375.909379 268.418607 
L 376.687927 268.322532 
L 377.466475 268.05459 
L 379.023571 267.149448 
L 381.359215 265.337186 
L 384.473407 262.908046 
L 386.809052 261.433058 
L 388.366148 260.668703 
L 389.923244 260.081938 
L 391.48034 259.688967 
L 393.037436 259.685366 
L 394.594532 259.991655 
L 396.930177 260.473946 
L 398.487273 260.728404 
L 398.487273 260.728404 
" clip-path="url(#pf9812b5ba0)" style="fill: none; stroke: #1f77b4; stroke-width: 1.5; stroke-linecap: square"/>
   </g>
   <g id="patch_3">
    <path d="M 57.6 307.584 
L 57.6 41.472 
" style="fill: none; stroke: #000000; stroke-width: 0.8; stroke-linejoin: miter; stroke-linecap: square"/>
   </g>
   <g id="patch_4">
    <path d="M 414.72 307.584 
L 414.72 41.472 
" style="fill: none; stroke: #000000; stroke-width: 0.8; stroke-linejoin: miter; stroke-linecap: square"/>
   </g>
   <g id="patch_5">
    <path d="M 57.6 307.584 
L 414.72 307.584 
" style="fill: none; stroke: #000000; stroke-width: 0.8; stroke-linejoin: miter; stroke-linecap: square"/>
   </g>
   <g id="patch_6">
    <path d="M 57.6 41.472 
L 414.72 41.472 
" style="fill: none; stroke: #000000; stroke-width: 0.8; stroke-linejoin: miter; stroke-linecap: square"/>
   </g>
   <g id="text_14">
    <!-- Average distance of each atom to previous iteration -->
    <g transform="translate(112.352812 35.472) scale(0.12 -0.12)">
     <defs>
      <path id="STIXGeneral-Regular-41" d="M 4525 0 
L 2893 0 
L 2893 122 
Q 3149 122 3245 179 
Q 3334 224 3334 333 
Q 3334 499 3213 781 
L 2950 1382 
L 1274 1382 
L 979 653 
Q 922 506 922 384 
Q 922 237 1027 179 
Q 1133 122 1370 122 
L 1370 0 
L 96 0 
L 96 122 
Q 365 147 486 316 
Q 608 486 902 1190 
L 2221 4314 
L 2349 4314 
L 3923 710 
Q 4064 378 4176 262 
Q 4288 147 4525 122 
L 4525 0 
z
M 2861 1645 
L 2118 3405 
L 1382 1645 
L 2861 1645 
z
" transform="scale(0.015625)"/>
      <path id="STIXGeneral-Regular-76" d="M 3053 2880 
L 3053 2784 
Q 2906 2771 2835 2688 
Q 2765 2605 2637 2285 
L 1818 230 
Q 1690 -90 1638 -90 
Q 1587 -90 1523 77 
Q 1510 96 1497 141 
Q 1485 186 1472 211 
L 704 2048 
Q 499 2534 403 2652 
Q 307 2771 122 2784 
L 122 2880 
L 1376 2880 
L 1376 2784 
Q 1210 2771 1146 2732 
Q 1082 2694 1082 2611 
Q 1082 2509 1139 2368 
L 1792 730 
L 2426 2387 
Q 2464 2483 2464 2579 
Q 2464 2758 2163 2784 
L 2163 2880 
L 3053 2880 
z
" transform="scale(0.015625)"/>
      <path id="STIXGeneral-Regular-67" d="M 3008 2483 
L 2477 2483 
Q 2598 2208 2598 1946 
Q 2598 1453 2265 1203 
Q 1933 954 1600 954 
Q 1530 954 1357 973 
L 1235 986 
Q 1107 947 979 812 
Q 851 678 851 582 
Q 851 435 1350 410 
L 2176 371 
Q 2528 358 2739 172 
Q 2950 -13 2950 -314 
Q 2950 -685 2566 -986 
Q 2035 -1395 1286 -1395 
Q 826 -1395 502 -1212 
Q 179 -1030 179 -774 
Q 179 -595 320 -419 
Q 461 -243 806 6 
Q 602 102 534 172 
Q 467 243 467 346 
Q 467 531 762 787 
Q 909 915 1037 1043 
Q 717 1203 579 1401 
Q 442 1600 442 1901 
Q 442 2336 752 2640 
Q 1062 2944 1510 2944 
Q 1766 2944 2022 2848 
L 2163 2797 
Q 2349 2733 2515 2733 
L 3008 2733 
L 3008 2483 
z
M 973 2163 
L 973 2144 
Q 973 1683 1155 1398 
Q 1338 1114 1632 1114 
Q 1850 1114 1978 1270 
Q 2106 1427 2106 1690 
Q 2106 2112 1914 2464 
Q 1754 2765 1446 2765 
Q 1222 2765 1097 2605 
Q 973 2445 973 2163 
z
M 2771 -410 
Q 2771 -230 2595 -163 
Q 2419 -96 1978 -96 
Q 1344 -96 941 -13 
Q 749 -243 688 -348 
Q 627 -454 627 -563 
Q 627 -774 880 -902 
Q 1133 -1030 1555 -1030 
Q 2099 -1030 2435 -860 
Q 2771 -691 2771 -410 
z
" transform="scale(0.015625)"/>
      <path id="STIXGeneral-Regular-64" d="M 3142 269 
L 2202 -64 
L 2176 -45 
L 2176 365 
Q 1869 -64 1357 -64 
Q 826 -64 499 317 
Q 173 698 173 1312 
Q 173 1990 563 2467 
Q 954 2944 1504 2944 
Q 1850 2944 2176 2669 
L 2176 3667 
Q 2176 3866 2118 3930 
Q 2061 3994 1882 3994 
Q 1792 3994 1741 3987 
L 1741 4090 
Q 2323 4243 2682 4371 
L 2714 4358 
L 2714 730 
Q 2714 506 2768 435 
Q 2822 365 2995 365 
Q 3034 365 3142 371 
L 3142 269 
z
M 2176 653 
L 2176 2125 
Q 2176 2381 1981 2573 
Q 1786 2765 1523 2765 
Q 1158 2765 940 2438 
Q 723 2112 723 1568 
Q 723 979 963 624 
Q 1203 269 1606 269 
Q 1907 269 2080 474 
Q 2176 582 2176 653 
z
" transform="scale(0.015625)"/>
      <path id="STIXGeneral-Regular-66" d="M 134 2880 
L 659 2880 
Q 666 3264 710 3478 
Q 755 3693 883 3910 
Q 1152 4371 1786 4371 
Q 2074 4371 2262 4259 
Q 2451 4147 2451 3974 
Q 2451 3866 2374 3789 
Q 2298 3712 2182 3712 
Q 2029 3712 1894 3942 
Q 1741 4192 1555 4192 
Q 1197 4192 1197 3622 
L 1197 2880 
L 1978 2880 
L 1978 2675 
L 1197 2675 
L 1197 666 
Q 1197 307 1299 208 
Q 1402 109 1792 96 
L 1792 0 
L 128 0 
L 128 96 
Q 474 115 566 214 
Q 659 314 659 666 
L 659 2675 
L 134 2675 
L 134 2880 
z
" transform="scale(0.015625)"/>
      <path id="STIXGeneral-Regular-68" d="M 3117 0 
L 1760 0 
L 1760 96 
Q 2042 128 2118 224 
Q 2195 320 2195 653 
L 2195 1920 
Q 2195 2598 1722 2598 
Q 1530 2598 1370 2508 
Q 1210 2419 1005 2195 
L 1005 653 
Q 1005 320 1081 224 
Q 1158 128 1440 96 
L 1440 0 
L 58 0 
L 58 96 
Q 333 134 400 224 
Q 467 314 467 653 
L 467 3667 
Q 467 3872 406 3933 
Q 346 3994 141 3994 
Q 83 3994 64 3987 
L 64 4090 
L 237 4141 
Q 730 4288 973 4371 
L 1005 4352 
L 1005 2406 
Q 1229 2694 1446 2819 
Q 1664 2944 1946 2944 
Q 2733 2944 2733 1926 
L 2733 653 
Q 2733 320 2793 233 
Q 2854 147 3117 96 
L 3117 0 
z
" transform="scale(0.015625)"/>
      <path id="STIXGeneral-Regular-6d" d="M 4960 0 
L 3565 0 
L 3565 96 
Q 3834 122 3907 208 
Q 3981 294 3981 576 
L 3981 1894 
Q 3981 2278 3869 2444 
Q 3757 2611 3488 2611 
Q 3264 2611 3107 2521 
Q 2950 2432 2803 2221 
L 2803 608 
Q 2803 301 2896 201 
Q 2989 102 3264 96 
L 3264 0 
L 1830 0 
L 1830 96 
Q 2112 115 2189 188 
Q 2266 262 2266 550 
L 2266 1901 
Q 2266 2611 1850 2611 
Q 1670 2611 1468 2531 
Q 1267 2451 1171 2336 
Q 1088 2240 1088 2227 
L 1088 448 
Q 1088 243 1177 176 
Q 1267 109 1523 96 
L 1523 0 
L 102 0 
L 102 96 
Q 371 102 460 195 
Q 550 288 550 563 
L 550 2150 
Q 550 2387 499 2480 
Q 448 2573 326 2573 
Q 230 2573 122 2547 
L 122 2656 
Q 557 2778 1011 2944 
L 1062 2925 
L 1062 2451 
L 1075 2451 
Q 1363 2752 1584 2848 
Q 1805 2944 2054 2944 
Q 2560 2944 2733 2406 
Q 3232 2944 3776 2944 
Q 4518 2944 4518 1792 
L 4518 493 
Q 4518 282 4582 202 
Q 4646 122 4794 109 
L 4960 96 
L 4960 0 
z
" transform="scale(0.015625)"/>
      <path id="STIXGeneral-Regular-70" d="M 1018 2931 
L 1018 2438 
Q 1421 2944 1939 2944 
Q 2406 2944 2707 2560 
Q 3008 2176 3008 1581 
Q 3008 883 2621 409 
Q 2234 -64 1664 -64 
Q 1466 -64 1328 -6 
Q 1190 51 1018 211 
L 1018 -794 
Q 1018 -1094 1120 -1180 
Q 1222 -1267 1581 -1274 
L 1581 -1389 
L 32 -1389 
L 32 -1280 
Q 314 -1254 397 -1171 
Q 480 -1088 480 -838 
L 480 2157 
Q 480 2381 429 2451 
Q 378 2522 218 2522 
Q 115 2522 58 2515 
L 58 2618 
Q 506 2752 979 2944 
L 1018 2931 
z
M 1018 2138 
L 1018 563 
Q 1018 422 1238 281 
Q 1459 141 1683 141 
Q 2029 141 2243 467 
Q 2458 794 2458 1325 
Q 2458 1888 2243 2224 
Q 2029 2560 1670 2560 
Q 1446 2560 1232 2419 
Q 1018 2278 1018 2138 
z
" transform="scale(0.015625)"/>
      <path id="STIXGeneral-Regular-75" d="M 3072 320 
L 3072 230 
Q 2573 96 2195 -58 
L 2163 -38 
L 2163 486 
L 2150 486 
Q 1747 -64 1235 -64 
Q 870 -64 662 160 
Q 454 384 454 755 
L 454 2362 
Q 454 2598 371 2688 
Q 288 2778 58 2790 
L 58 2880 
L 992 2880 
L 992 813 
Q 992 595 1123 451 
Q 1254 307 1446 307 
Q 1760 307 1984 506 
Q 2067 582 2099 649 
Q 2131 717 2131 877 
L 2131 2355 
Q 2131 2605 2041 2678 
Q 1952 2752 1658 2771 
L 1658 2880 
L 2669 2880 
L 2669 685 
Q 2669 461 2742 390 
Q 2816 320 3034 320 
L 3072 320 
z
" transform="scale(0.015625)"/>
     </defs>
     <use xlink:href="#STIXGeneral-Regular-41"/>
     <use xlink:href="#STIXGeneral-Regular-76" x="72.199982"/>
     <use xlink:href="#STIXGeneral-Regular-65" x="122.199966"/>
     <use xlink:href="#STIXGeneral-Regular-72" x="166.59996"/>
     <use xlink:href="#STIXGeneral-Regular-61" x="199.899948"/>
     <use xlink:href="#STIXGeneral-Regular-67" x="244.299942"/>
     <use xlink:href="#STIXGeneral-Regular-65" x="294.299927"/>
     <use xlink:href="#STIXGeneral-Regular-20" x="338.699921"/>
     <use xlink:href="#STIXGeneral-Regular-64" x="363.699905"/>
     <use xlink:href="#STIXGeneral-Regular-69" x="413.69989"/>
     <use xlink:href="#STIXGeneral-Regular-73" x="441.499878"/>
     <use xlink:href="#STIXGeneral-Regular-74" x="480.399872"/>
     <use xlink:href="#STIXGeneral-Regular-61" x="508.19986"/>
     <use xlink:href="#STIXGeneral-Regular-6e" x="552.599854"/>
     <use xlink:href="#STIXGeneral-Regular-63" x="602.599838"/>
     <use xlink:href="#STIXGeneral-Regular-65" x="646.999832"/>
     <use xlink:href="#STIXGeneral-Regular-20" x="691.399826"/>
     <use xlink:href="#STIXGeneral-Regular-6f" x="716.399811"/>
     <use xlink:href="#STIXGeneral-Regular-66" x="766.399796"/>
     <use xlink:href="#STIXGeneral-Regular-20" x="799.699783"/>
     <use xlink:href="#STIXGeneral-Regular-65" x="824.699768"/>
     <use xlink:href="#STIXGeneral-Regular-61" x="869.099762"/>
     <use xlink:href="#STIXGeneral-Regular-63" x="913.499756"/>
     <use xlink:href="#STIXGeneral-Regular-68" x="957.89975"/>
     <use xlink:href="#STIXGeneral-Regular-20" x="1007.899734"/>
     <use xlink:href="#STIXGeneral-Regular-61" x="1032.899719"/>
     <use xlink:href="#STIXGeneral-Regular-74" x="1077.299713"/>
     <use xlink:href="#STIXGeneral-Regular-6f" x="1105.099701"/>
     <use xlink:href="#STIXGeneral-Regular-6d" x="1155.099686"/>
     <use xlink:href="#STIXGeneral-Regular-20" x="1232.899673"/>
     <use xlink:href="#STIXGeneral-Regular-74" x="1257.899658"/>
     <use xlink:href="#STIXGeneral-Regular-6f" x="1285.699646"/>
     <use xlink:href="#STIXGeneral-Regular-20" x="1335.699631"/>
     <use xlink:href="#STIXGeneral-Regular-70" x="1360.699615"/>
     <use xlink:href="#STIXGeneral-Regular-72" x="1410.6996"/>
     <use xlink:href="#STIXGeneral-Regular-65" x="1443.999588"/>
     <use xlink:href="#STIXGeneral-Regular-76" x="1488.399582"/>
     <use xlink:href="#STIXGeneral-Regular-69" x="1538.399567"/>
     <use xlink:href="#STIXGeneral-Regular-6f" x="1566.199554"/>
     <use xlink:href="#STIXGeneral-Regular-75" x="1616.199539"/>
     <use xlink:href="#STIXGeneral-Regular-73" x="1666.199524"/>
     <use xlink:href="#STIXGeneral-Regular-20" x="1705.099518"/>
     <use xlink:href="#STIXGeneral-Regular-69" x="1730.099503"/>
     <use xlink:href="#STIXGeneral-Regular-74" x="1757.89949"/>
     <use xlink:href="#STIXGeneral-Regular-65" x="1785.699478"/>
     <use xlink:href="#STIXGeneral-Regular-72" x="1830.099472"/>
     <use xlink:href="#STIXGeneral-Regular-61" x="1863.39946"/>
     <use xlink:href="#STIXGeneral-Regular-74" x="1907.799454"/>
     <use xlink:href="#STIXGeneral-Regular-69" x="1935.599442"/>
     <use xlink:href="#STIXGeneral-Regular-6f" x="1963.399429"/>
     <use xlink:href="#STIXGeneral-Regular-6e" x="2013.399414"/>
    </g>
   </g>
  </g>
 </g>
 <defs>
  <clipPath id="pf9812b5ba0">
   <rect x="57.6" y="41.472" width="357.12" height="266.112"/>
  </clipPath>
 </defs>
</svg>
